<svg width="19" height="22" viewBox="0 0 19 22" fill="none" xmlns="http://www.w3.org/2000/svg">
<path d="M15.4576 11.6375C15.4576 9.82071 16.2923 8.49491 17.9128 7.46374C16.9798 6.13794 15.6049 5.45049 13.7881 5.30318C12.0203 5.15587 10.1053 6.28525 9.41784 6.28525C8.68129 6.28525 7.01177 5.35229 5.68597 5.35229C2.93617 5.40139 0.0390625 7.51284 0.0390626 11.8831C0.0390626 13.1598 0.235477 14.4855 0.726512 15.8604C1.36486 17.6773 3.62362 22.0966 5.98059 21.9984C7.20818 21.9984 8.09204 21.1145 9.71246 21.1145C11.2838 21.1145 12.0694 21.9984 13.4443 21.9984C15.8504 21.9984 17.9128 17.9719 18.502 16.1551C15.3103 14.6329 15.4576 11.7357 15.4576 11.6375ZM12.7078 3.58456C14.0336 2.01325 13.8863 0.540139 13.8863 5.76456e-08C12.7078 0.0982071 11.3329 0.83476 10.5472 1.71862C9.66336 2.7007 9.17232 3.92828 9.27053 5.25408C10.5472 5.35229 11.7257 4.71394 12.7078 3.58456Z" fill="#030405"/>
</svg>
