<svg width="32" height="32" viewBox="0 0 32 32" fill="none" xmlns="http://www.w3.org/2000/svg">
<path fill-rule="evenodd" clip-rule="evenodd" d="M16 32C24.8366 32 32 24.8366 32 16C32 7.16344 24.8366 0 16 0C7.16344 0 0 7.16344 0 16C0 24.8366 7.16344 32 16 32Z" fill="#C3A634"/>
<path fill-rule="evenodd" clip-rule="evenodd" d="M10.0445 24.6503H15.8445C15.8445 24.6503 23.9999 25.3338 23.9999 16.1395C23.9999 7.3016 16.5526 7.33294 15.1133 7.339C15.0796 7.33914 15.0492 7.33927 15.0223 7.33927H10.0443V15.0506H7.99994V16.9395H10.0445V24.6503ZM15.5999 10.5391H13.3116V15.0505H16.9117V16.9394H13.3116V21.4505L15.7357 21.4505C16.434 21.4514 20.7754 21.4568 20.7686 16.2019C20.7617 10.8836 16.4558 10.5391 15.5999 10.5391Z" fill="white"/>
</svg>
