<svg width="18" height="21" viewBox="0 0 18 21" fill="none" xmlns="http://www.w3.org/2000/svg">
<path d="M15.082 9.09304L10.3647 13.8104C10.0962 14.0788 9.71271 14.2322 9.32919 14.2322C8.90732 14.2322 8.52379 14.0788 8.25533 13.8104L3.538 9.09304C3.30788 8.86293 3.19283 8.51776 3.19283 8.17259C3.19283 7.48224 3.76811 6.86861 4.45845 6.86861H6.87464V1.95952C6.87464 1.30753 7.41158 0.732244 8.10192 0.732244H10.5565C11.2085 0.732244 11.7837 1.30753 11.7837 1.95952V6.86861H14.1616C14.8519 6.86861 15.4656 7.48224 15.4656 8.17259C15.4656 8.51776 15.3121 8.86293 15.082 9.09304ZM3.19283 14.2322V16.6868C3.19283 17.3771 3.72976 17.9141 4.4201 17.9141H14.2383C14.8903 17.9141 15.4656 17.3771 15.4656 16.6868V14.2322C15.4656 13.5803 16.0025 13.005 16.6928 13.005C17.3448 13.005 17.9201 13.5803 17.9201 14.2322V16.6868C17.9201 18.7195 16.271 20.3686 14.2383 20.3686H4.4201C2.38743 20.3686 0.738281 18.7195 0.738281 16.6868V14.2322C0.738281 13.5803 1.27521 13.005 1.96555 13.005C2.61754 13.005 3.19283 13.5803 3.19283 14.2322Z" fill="currentColor"/>
</svg>
