<svg width="141" height="26" viewBox="0 0 141 26" fill="none" xmlns="http://www.w3.org/2000/svg">
<path d="M126.037 21.0173H131.116C131.311 21.6578 131.981 22.2986 133.237 22.2986C134.939 22.2986 135.525 21.2402 135.525 19.681V18.568H135.413C134.576 19.5425 133.46 20.2663 131.814 20.2663C128.577 20.2663 125.758 17.872 125.758 13.196C125.758 8.90937 128.074 5.56943 131.563 5.56943C133.572 5.56943 134.8 6.37651 135.609 7.65696H135.692V6.01503H140.715V18.9856C140.715 21.3793 139.878 23.2442 138.622 24.3581C137.311 25.5266 135.441 26 133.321 26C129.33 26 126.54 24.3581 126.037 21.0173ZM135.748 12.9456C135.748 11.0805 134.855 9.57792 133.321 9.57792C131.841 9.57792 130.893 10.9136 130.893 12.9456C130.893 14.9499 131.841 16.3969 133.321 16.3969C134.855 16.3969 135.748 14.9221 135.748 12.9456ZM120.15 8.57594H120.233C121.321 6.48812 122.745 5.7088 124.558 5.7088C124.976 5.7088 125.256 5.76461 125.423 5.8479V10.4405H125.312C122.215 9.88415 120.401 11.3595 120.401 14.7272V20.9898H115.127V6.01531H120.15V8.57594ZM0.152344 0.0025788H10.477C12.4297 0.0025788 13.9365 0.475947 14.9977 1.33856C16.1967 2.31278 16.8391 3.76036 16.8391 5.48586C16.8391 7.49011 16.03 8.74279 14.3554 9.52183V9.60568C16.5324 10.3289 17.7871 12.2771 17.7871 14.6434C17.7871 16.898 16.9223 18.6513 15.499 19.7094C14.2997 20.5722 12.7375 20.9898 10.6726 20.9898H0.152344V0.0025788ZM9.97487 16.3411C11.2304 16.3411 12.1505 15.5895 12.1505 14.1983C12.1505 12.7504 11.146 12.055 9.94704 12.055H5.87297V16.3411H9.97487ZM9.44467 8.21334C10.5605 8.21334 11.3695 7.60144 11.3695 6.37651C11.3695 5.17991 10.5326 4.59521 9.41684 4.59521H5.87297V8.21334H9.44467Z" fill="#6B767E"/>
<path d="M18.7402 0H24.1533V20.9872H18.7402V0ZM25.1867 13.5272C25.1867 8.79546 28.256 5.59461 32.9989 5.59461C37.7429 5.59461 40.7565 8.79546 40.7565 13.5272C40.7565 18.2872 37.7429 21.4598 32.9989 21.4598C28.256 21.4598 25.1867 18.2872 25.1867 13.5272ZM35.3991 13.5272C35.3991 10.911 34.5614 9.26883 32.9432 9.26883C31.3254 9.26883 30.5441 10.911 30.5441 13.5272C30.5441 16.1717 31.3254 17.8139 32.9432 17.8139C34.5614 17.8139 35.3991 16.1717 35.3991 13.5272ZM41.3725 13.5272C41.3725 8.79546 44.4418 5.59461 49.1847 5.59461C53.9287 5.59461 56.9423 8.79546 56.9423 13.5272C56.9423 18.2872 53.9287 21.4598 49.1847 21.4598C44.4418 21.4598 41.3725 18.2872 41.3725 13.5272ZM51.5849 13.5272C51.5849 10.911 50.7472 9.26883 49.129 9.26883C47.5112 9.26883 46.7299 10.911 46.7299 13.5272C46.7299 16.1717 47.5112 17.8139 49.129 17.8139C50.7472 17.8139 51.5849 16.1717 51.5849 13.5272ZM57.9758 6.01246H62.9986V8.26657H63.0821C64.0866 6.51303 65.4534 5.56685 67.6026 5.56685C69.4997 5.56685 70.9233 6.51303 71.6489 8.15523H71.7321C72.96 6.17875 74.5504 5.56685 76.3917 5.56685C79.8799 5.56685 81.3868 8.12747 81.3868 11.579V20.9869H76.1129V12.5252C76.1129 10.994 75.6383 9.99206 74.2993 9.99206C72.9879 9.99206 72.3177 11.217 72.3177 12.8317V20.9869H67.0449V12.5252C67.0449 10.994 66.5703 9.99206 65.2313 9.99206C63.9188 9.99206 63.25 11.217 63.25 12.8317V20.9869H57.9758V6.01246ZM87.8363 19.0388H87.781V20.9872H82.7581V0H88.032V7.57109H88.1155C89.12 6.26316 90.459 5.56685 92.385 5.56685C96.152 5.56685 98.328 8.96232 98.328 13.4719C98.328 18.5654 95.9564 21.4881 92.0504 21.4881C90.4311 21.4881 88.7576 20.7088 87.8363 19.0388ZM92.9705 13.4164C92.9705 10.9943 92.0783 9.43569 90.4868 9.43569C88.8689 9.43569 87.8363 10.9943 87.8363 13.4164C87.8363 15.8096 88.8689 17.3966 90.4868 17.3966C92.1061 17.3966 92.9705 15.8374 92.9705 13.4164ZM98.999 13.4719C98.999 8.79546 102.096 5.53937 106.589 5.53937C108.822 5.53937 110.552 6.23484 111.863 7.48753C113.593 9.1575 114.375 11.7736 114.318 14.8637H104.245C104.469 16.7289 105.361 17.6748 106.951 17.6748C107.872 17.6748 108.682 17.2575 109.017 16.2555H114.095C113.202 19.6785 110.552 21.4045 106.785 21.4045C102.125 21.4045 98.999 18.2598 98.999 13.4719ZM104.245 11.9133H109.045C108.96 10.1042 107.956 9.1575 106.7 9.1575C105.25 9.1575 104.441 10.1872 104.245 11.9133Z" fill="#6B767E"/>
</svg>
