<svg width="107" height="26" viewBox="0 0 107 26" fill="none" xmlns="http://www.w3.org/2000/svg">
<g clip-path="url(#clip0_16463_68879)">
<g clip-path="url(#clip1_16463_68879)">
<path d="M14.3493 6.38671V19.6683C14.3493 21.1622 14.9426 22.5949 15.9988 23.6513C17.0549 24.7076 18.4873 25.3011 19.9809 25.3011C21.4745 25.3011 22.9069 24.7076 23.9631 23.6513C25.0192 22.5949 25.6125 21.1622 25.6125 19.6683V6.38671C25.6125 4.8928 25.0192 3.46007 23.9631 2.40372C22.9069 1.34736 21.4745 0.753906 19.9809 0.753906C18.4873 0.753906 17.0549 1.34736 15.9988 2.40372C14.9426 3.46007 14.3493 4.8928 14.3493 6.38671ZM18.3804 19.6683V6.38671C18.3779 6.17336 18.4201 5.96186 18.5043 5.7658C18.5884 5.56974 18.7127 5.39346 18.869 5.24828C19.0253 5.1031 19.2102 4.99222 19.412 4.92279C19.6137 4.85335 19.8277 4.82689 20.0402 4.8451C20.2444 4.83851 20.4478 4.87387 20.6377 4.94901C20.8277 5.02415 21.0003 5.13747 21.1447 5.28195C21.2892 5.42644 21.4025 5.59903 21.4776 5.78905C21.5527 5.97907 21.5881 6.18248 21.5815 6.38671V19.6683C21.5754 20.0752 21.411 20.4638 21.1233 20.7516C20.8356 21.0394 20.4471 21.2037 20.0402 21.2099C19.83 21.2178 19.6202 21.1842 19.423 21.111C19.2258 21.0378 19.0449 20.9264 18.8908 20.7832C18.7366 20.6401 18.6122 20.4679 18.5246 20.2766C18.437 20.0852 18.388 19.8785 18.3804 19.6683ZM58.0981 1.05037H46.7163V5.08227H50.3917V24.886H54.4227V5.08227H58.0981V1.05037ZM69.9541 1.05037V19.6683C69.9541 20.0771 69.7918 20.4692 69.5027 20.7583C69.2137 21.0474 68.8216 21.2099 68.4129 21.2099C68.0041 21.2099 67.6121 21.0474 67.323 20.7583C67.034 20.4692 66.8716 20.0771 66.8716 19.6683V1.05037H62.722V19.6683C62.722 21.1779 63.3215 22.6257 64.3888 23.6932C65.456 24.7607 66.9035 25.3604 68.4129 25.3604C69.9222 25.3604 71.3697 24.7607 72.4369 23.6932C73.5042 22.6257 74.1038 21.1779 74.1038 19.6683V1.05037H69.9541ZM106.826 5.08227V1.05037H96.8674V24.886H106.826V20.8541H100.898V14.6877H104.692V10.6558H100.898V5.08227H106.826ZM42.9224 24.886H38.6542L35.6902 13.6204C36.4297 13.4741 37.0949 13.0741 37.5711 12.4896C38.0473 11.905 38.3046 11.1726 38.2985 10.4186V6.74246C38.3034 6.52311 38.2637 6.30505 38.1821 6.10143C38.1004 5.89781 37.9783 5.71285 37.8232 5.55771C37.6681 5.40257 37.4831 5.28046 37.2796 5.19875C37.076 5.11703 36.858 5.07741 36.6387 5.08227H35.0974V24.886H31.0663V1.05037H36.6387C38.1113 1.03716 39.5308 1.60025 40.594 2.61942C41.6573 3.6386 42.2801 5.03312 42.3296 6.50529V10.3C42.3837 11.2848 42.2084 12.2687 41.8175 13.1742C41.4266 14.0797 40.8307 14.8819 40.0769 15.5178L42.9224 24.886ZM87.8568 1.05037V14.0948L83.7072 1.05037H79.5575V24.886H83.7072V13.2647L87.5011 24.886H92.0064V1.05037H87.8568ZM0.714844 1.40613V25.2418H4.98302V15.0434H8.89551V11.0115H4.98302V5.43802H11.1482V1.40613H0.714844Z" fill="#6B767E"/>
</g>
</g>
<defs>
<clipPath id="clip0_16463_68879">
<rect width="105.857" height="26" fill="white" transform="translate(0.714844)"/>
</clipPath>
<clipPath id="clip1_16463_68879">
<rect width="106.112" height="24.4286" fill="white" transform="translate(0.714844 0.8125)"/>
</clipPath>
</defs>
</svg>
