<svg width="125" height="26" viewBox="0 0 125 26" fill="none" xmlns="http://www.w3.org/2000/svg">
<g clip-path="url(#clip0_16463_68881)">
<g clip-path="url(#clip1_16463_68881)">
<path fill-rule="evenodd" clip-rule="evenodd" d="M12.6025 17.6417L14.1313 8.04084C14.2446 7.35912 14.0181 6.73421 13.735 6.16612C13.4519 5.54121 12.8856 5.14354 12.3194 4.85949C11.3002 4.40502 9.94119 4.68906 9.20508 5.42759C8.46897 6.16612 8.07261 7.30231 8.46897 8.4385L12.2061 16.8463L12.6025 17.6417ZM20.4726 6.39314C20.3028 5.99547 20.0197 5.65462 19.6799 5.37057C18.8306 4.63204 17.415 4.51842 16.3957 5.08652C15.4331 5.541 14.8669 6.62038 14.8669 7.64295H16.1126C16.1955 7.72613 16.2481 7.74842 16.3147 7.77667L16.3147 7.77668C16.3391 7.78702 16.3654 7.79816 16.3957 7.81338C16.2829 7.90145 16.1478 7.98672 16.0084 8.07477C15.5181 8.3843 14.9737 8.72804 15.15 9.34725L16.4524 17.7551L20.1329 9.46086C20.6991 8.4951 20.9823 7.35891 20.4726 6.39314ZM25.7962 13.0396C26.3624 12.3011 26.4191 10.9945 25.9661 10.1423C25.5131 9.34699 24.6637 8.77889 23.8144 8.55165C22.6253 8.38122 21.4928 8.94932 20.8133 10.0855L16.6798 19.4023L16.5665 19.6863L24.3806 14.2894C24.5279 14.1602 24.687 14.0429 24.8485 13.924C25.1837 13.6771 25.5287 13.4231 25.7962 13.0396ZM3.88299 13.6651L12.5464 19.6302H12.6597L8.35627 10.0861C7.62016 8.83631 6.09132 8.26821 4.67573 8.7795C3.82637 9.17717 3.14689 9.91569 2.97701 10.7678C2.52402 11.8472 2.92039 12.9834 3.88299 13.6651ZM28.2293 17.0169C28.5691 17.8123 28.5125 19.1757 27.833 19.9142C27.1535 20.6528 26.4174 20.9936 25.5114 20.9936H16.2817L23.9826 15.6535C24.7187 15.199 25.8511 15.0854 26.7005 15.4831C27.38 15.7671 27.9462 16.3352 28.2293 17.0169ZM12.7727 20.9941L5.07187 15.5404C4.33576 15.0859 3.20328 14.9723 2.35393 15.37C1.67444 15.654 1.1082 16.2221 0.825086 16.9038C0.372096 17.8696 0.541967 19.0626 1.22145 19.8011C1.78769 20.5397 2.63704 20.9373 3.59965 20.9373L12.7727 20.9941Z" fill="#6B767E"/>
<path d="M47.3146 10.7104C46.9182 9.00608 45.6159 8.55161 44.0304 8.43799C39.0475 7.98351 38.1981 11.733 38.1981 13.3236C38.1981 16.0505 38.9343 18.2093 43.8605 18.2093C44.8231 18.2093 47.2579 17.2435 47.2579 15.7664H54.3359C54.0528 20.3112 46.5218 21.3338 43.2377 21.3338C36.4428 21.3338 30.6106 20.084 30.8937 13.3236C31.0636 8.4948 35.5935 5.14303 44.5966 5.37026C49.5795 5.48388 54.3925 7.07456 54.3925 10.6536H47.3146V10.7104Z" fill="#6B767E"/>
<path d="M117.867 10.7086C117.471 9.0043 116.169 8.54982 114.583 8.4362C109.6 7.98173 108.751 11.7312 108.751 13.265C108.751 15.9919 109.487 18.1507 114.413 18.1507C115.376 18.1507 117.811 17.1849 117.811 15.7078H124.889C124.605 20.2526 117.075 21.2752 113.79 21.2752C106.996 21.2752 101.163 20.0254 101.446 13.265C101.616 8.4362 106.146 5.08443 115.149 5.31167C120.132 5.42529 125.002 7.01596 125.002 10.595H117.867V10.7086Z" fill="#6B767E"/>
<path d="M55.6943 5.71094H64.8108L72.6248 16.6752H72.7381V5.71094H78.5703V20.8791H69.8503L61.6965 9.91486H61.5832V20.8791H55.6943C55.6943 20.9359 55.6943 5.71094 55.6943 5.71094Z" fill="#6B767E"/>
<path d="M80.3262 5.71094H91.4244C96.8037 5.71094 99.8614 7.2448 99.8614 9.46038C99.8614 10.767 98.559 12.4713 95.6146 12.9258C99.0686 13.0962 100.428 15.3686 100.428 16.6752C100.428 19.4021 97.4266 20.8223 91.4244 20.8223H80.3262V5.71094ZM86.8379 11.676H88.7065C91.5377 11.676 93.0099 11.5055 93.0099 10.2557C93.0099 9.0059 91.7642 8.55142 89.2727 8.55142H86.8945V11.676H86.8379ZM86.8379 17.8114H88.7065C92.1039 17.8114 93.4063 17.4137 93.4063 16.2775C93.4063 15.0277 91.8208 14.5732 89.2727 14.5732H86.8945V17.7546H86.8379V17.8114Z" fill="#6B767E"/>
</g>
</g>
<defs>
<clipPath id="clip0_16463_68881">
<rect width="124.429" height="26" fill="white" transform="translate(0.572266)"/>
</clipPath>
<clipPath id="clip1_16463_68881">
<rect width="124.429" height="16.6933" fill="white" transform="translate(0.572266 4.64062)"/>
</clipPath>
</defs>
</svg>
