<svg width="140" height="32" viewBox="0 0 140 32" fill="none" xmlns="http://www.w3.org/2000/svg">
<path d="M103.69 19.1718C103.69 20.8713 103.752 20.9194 105.298 20.9194H110.455C110.674 20.9194 110.856 21.1013 110.856 21.3228V22.6206C110.856 22.9055 110.756 23.0085 110.455 23.0463C109.799 23.1493 108.473 23.3295 106.054 23.3295C102.667 23.3295 100.878 23.3519 100.878 19.1701V12.7481C100.878 8.56467 102.667 8.58699 106.054 8.58699C108.473 8.58699 109.797 8.77067 110.455 8.87024C110.756 8.91144 110.856 9.01272 110.856 9.29768V10.5937C110.856 10.8169 110.672 11.0023 110.455 11.0023H105.298C103.752 11.0023 103.69 11.0469 103.69 12.7464V14.6055H110.205C110.433 14.6055 110.61 14.7909 110.61 15.0107V16.475C110.61 16.6964 110.433 16.8801 110.205 16.8801H103.69V19.1718ZM133.796 23.3398C131.996 23.3398 130.173 23.0326 129.195 22.8077C128.995 22.7665 128.809 22.6257 128.809 22.4026V20.9417C128.809 20.7185 128.995 20.5554 129.195 20.5554H129.236C130.051 20.6567 131.959 20.9211 133.841 20.9211C135.65 20.9211 136.203 20.2756 136.203 19.098C136.203 17.5753 132.56 16.7325 130.779 16.0029C129.011 15.2716 128.381 13.8743 128.381 12.4529C128.381 10.2195 130.185 8.59557 133.968 8.59557C135.908 8.59557 137.687 8.96293 138.377 9.13117C138.582 9.17236 138.741 9.31313 138.741 9.51398V11.016C138.741 11.2169 138.603 11.38 138.396 11.38H138.357C137.014 11.2598 135.619 11.0143 133.851 11.0143C132.341 11.0143 131.211 11.5396 131.211 12.4529C131.211 13.1207 131.978 13.7369 132.881 14.0923C133.785 14.4459 134.972 14.9077 136.327 15.4519C138.038 16.1437 139.152 17.1513 139.152 19.0963C139.151 21.1477 137.87 23.3398 133.796 23.3398ZM122.973 13.179C122.973 11.6564 121.79 11.0075 119.749 11.0075C119.324 11.0075 117.473 11.0487 117.105 11.0864V15.4879C117.434 15.5085 119.408 15.5497 119.749 15.5497C121.848 15.5497 122.973 15.1463 122.973 13.361V13.179ZM126.027 23.1699H123.539C123.317 23.1699 123.236 22.9656 123.134 22.7631L120.2 17.8431H119.746C119.219 17.8431 117.575 17.7848 117.101 17.7607V22.7631C117.101 22.9862 116.941 23.1699 116.717 23.1699H114.684C114.458 23.1699 114.276 22.9862 114.276 22.7631V9.46248C114.276 9.05392 114.517 8.91315 114.925 8.85135C115.984 8.68999 118.263 8.58871 119.744 8.58871C122.883 8.58871 125.776 9.70624 125.776 13.1773V13.361C125.776 15.5102 124.694 16.6878 123.028 17.3333L126.227 22.7648C126.268 22.8266 126.268 22.8832 126.268 22.9296C126.272 23.0669 126.189 23.1699 126.027 23.1699ZM98.3818 11.1053H94.3201V22.7648C94.3201 22.9879 94.1324 23.1716 93.9069 23.1716H91.8941C91.6686 23.1716 91.486 22.9879 91.486 22.7648V11.1053H87.4209C87.2005 11.1053 87.0163 10.968 87.0163 10.7431V9.13975C87.0163 8.91487 87.2005 8.7535 87.4209 8.7535H98.3818C98.6022 8.7535 98.7865 8.91487 98.7865 9.13975V10.7431C98.7865 10.968 98.6022 11.1053 98.3818 11.1053ZM78.8928 23.3313C75.6197 23.3313 72.7959 21.9116 72.7959 17.5839V9.13975C72.7959 8.91487 72.9819 8.7535 73.2057 8.7535H75.2168C75.4441 8.7535 75.6248 8.91487 75.6248 9.13975V17.5839C75.6248 19.8997 76.6975 20.9966 78.8928 20.9966C81.095 20.9966 82.1642 19.8997 82.1642 17.5839V9.13975C82.1642 8.91487 82.3485 8.7535 82.5706 8.7535H84.5851C84.8124 8.7535 84.9949 8.91487 84.9949 9.13975V17.5839C84.9966 21.9116 82.1728 23.3313 78.8928 23.3313ZM62.5874 19.1718C62.5874 20.8713 62.6528 20.9194 64.1921 20.9194H69.3455C69.571 20.9194 69.7535 21.1013 69.7535 21.3228V22.6206C69.7535 22.9055 69.6502 23.0085 69.3455 23.0463C68.6946 23.1493 67.3671 23.3295 64.9463 23.3295C61.5681 23.3295 59.7757 23.3519 59.7757 19.1701V12.7481C59.7757 8.56467 61.5681 8.58699 64.9463 8.58699C67.3671 8.58699 68.6929 8.77067 69.3455 8.87024C69.6519 8.91144 69.7535 9.01272 69.7535 9.29768V10.5937C69.7535 10.8169 69.5693 11.0023 69.3455 11.0023H64.1921C62.6528 11.0023 62.5874 11.0469 62.5874 12.7464V14.6055H69.1027C69.3265 14.6055 69.5107 14.7909 69.5107 15.0107V16.475C69.5107 16.6964 69.3265 16.8801 69.1027 16.8801H62.5874V19.1718ZM53.8613 13.179C53.8613 11.6564 52.6767 11.0075 50.6416 11.0075C50.2111 11.0075 48.3585 11.0487 47.9952 11.0864V15.4879C48.3171 15.5085 50.2903 15.5497 50.6416 15.5497C52.7353 15.5497 53.8613 15.1463 53.8613 13.361V13.179ZM56.9158 23.1699H54.4295C54.2074 23.1699 54.1248 22.9656 54.0249 22.7631L51.091 17.8431H50.6433C50.1112 17.8431 48.4652 17.7848 47.9969 17.7607V22.7631C47.9969 22.9862 47.8316 23.1699 47.6078 23.1699H45.5726C45.3505 23.1699 45.168 22.9862 45.168 22.7631V9.46248C45.168 9.05392 45.409 8.91315 45.8188 8.85135C46.8794 8.68999 49.1557 8.58871 50.6433 8.58871C53.777 8.58871 56.673 9.70624 56.673 13.1773V13.361C56.673 15.5102 55.5935 16.6878 53.925 17.3333L57.119 22.7648C57.1603 22.8266 57.1603 22.8832 57.1603 22.9296C57.1586 23.0669 57.0776 23.1699 56.9158 23.1699Z" fill="#6B767E"/>
<path d="M16.064 10.5944C15.7764 10.7489 15.6749 11.1077 15.8247 11.3909C15.9779 11.6811 16.3412 11.7841 16.6287 11.633C16.9146 11.4768 17.0196 11.1197 16.8664 10.8313C16.7613 10.6356 16.5581 10.5206 16.3464 10.5206C16.2499 10.5223 16.1535 10.5464 16.064 10.5944ZM17.6532 10.6202C17.3949 10.7558 17.3054 11.0734 17.4414 11.3291C17.5757 11.5832 17.8943 11.6793 18.1491 11.5386C18.4091 11.3995 18.5003 11.0837 18.3643 10.8296C18.2713 10.6545 18.0923 10.5549 17.9063 10.5549C17.8202 10.5532 17.7341 10.5755 17.6532 10.6202ZM14.5557 11.0425C14.232 11.2176 14.108 11.6227 14.2854 11.9454C14.461 12.2699 14.8656 12.3952 15.1962 12.2184C15.5216 12.0433 15.6404 11.6381 15.4665 11.3154C15.346 11.0888 15.1153 10.9618 14.876 10.9618C14.7675 10.9618 14.6573 10.9875 14.5557 11.0425ZM19.1787 11.1146C18.9549 11.2382 18.8688 11.5214 18.9893 11.7411C19.1098 11.9643 19.394 12.045 19.6109 11.9231C19.8399 11.8029 19.9225 11.5248 19.7986 11.3034C19.7159 11.1489 19.5558 11.0613 19.3922 11.0613C19.3182 11.0631 19.2459 11.0785 19.1787 11.1146ZM13.359 12.0501C13.0681 12.2098 12.9596 12.56 13.118 12.8535C13.273 13.1368 13.6276 13.2449 13.9152 13.0904C14.2079 12.9359 14.3146 12.5754 14.1597 12.2922C14.0529 12.0948 13.848 11.9798 13.6363 11.9798C13.5416 11.978 13.4469 12.0021 13.359 12.0501ZM20.4907 12.057C20.2944 12.1634 20.2239 12.4003 20.3254 12.5909C20.4287 12.7814 20.6664 12.8501 20.8644 12.754C21.0538 12.6458 21.1295 12.4072 21.0245 12.2149C20.9522 12.0845 20.8161 12.0072 20.6767 12.0072C20.6147 12.0089 20.5493 12.0244 20.4907 12.057ZM21.4601 13.3462C21.3069 13.4355 21.2432 13.638 21.3327 13.7942C21.4171 13.9539 21.6168 14.0105 21.7735 13.9264C21.9336 13.8406 21.9939 13.6449 21.9078 13.4852C21.8458 13.372 21.7321 13.3102 21.6151 13.3102C21.5617 13.3102 21.51 13.3205 21.4601 13.3462ZM12.5068 13.3874C12.2502 13.5247 12.1572 13.844 12.2898 14.0981C12.431 14.3504 12.7495 14.4483 13.0026 14.311C13.2592 14.1753 13.3573 13.856 13.2179 13.5985C13.1214 13.4252 12.9389 13.3256 12.753 13.3256C12.6703 13.3256 12.586 13.3462 12.5068 13.3874ZM21.9525 14.7556C21.758 14.8568 21.6857 15.0989 21.7924 15.2894C21.8923 15.48 22.1351 15.5504 22.321 15.4525C22.5156 15.3409 22.5896 15.1006 22.488 14.9135C22.4157 14.7813 22.2797 14.7075 22.1402 14.7075C22.0748 14.7075 22.0128 14.7247 21.9525 14.7556ZM12.0884 14.9358C11.868 15.0543 11.787 15.3324 11.9041 15.5538C12.0281 15.7804 12.3053 15.8611 12.5291 15.7409C12.7513 15.619 12.8356 15.3375 12.7151 15.1195C12.6324 14.9667 12.474 14.8792 12.3105 14.8792C12.2364 14.8774 12.159 14.8946 12.0884 14.9358ZM21.956 16.2508C21.7304 16.3744 21.6512 16.649 21.7666 16.8756C21.8854 17.0936 22.1729 17.176 22.395 17.0576C22.6172 16.9357 22.6981 16.6576 22.5776 16.4362C22.4949 16.2817 22.3382 16.1958 22.1746 16.1958C22.1006 16.1958 22.0266 16.213 21.956 16.2508ZM12.1555 16.5409C11.9661 16.6456 11.8938 16.8859 11.9988 17.0765C12.1021 17.2705 12.3432 17.3374 12.5309 17.231C12.7237 17.1331 12.8012 16.8894 12.6927 16.7005C12.6187 16.5701 12.4844 16.4945 12.3432 16.4945C12.2795 16.4945 12.214 16.51 12.1555 16.5409ZM21.479 17.679C21.2225 17.8129 21.1278 18.1391 21.2638 18.3931C21.405 18.6455 21.7218 18.7416 21.9732 18.6043C22.2349 18.4635 22.3262 18.1494 22.1919 17.8919C22.0972 17.7168 21.9164 17.6155 21.7287 17.6155C21.6443 17.6155 21.5582 17.6361 21.479 17.679ZM12.7065 18.0635C12.5446 18.1477 12.4878 18.3468 12.5739 18.5116C12.66 18.6678 12.8563 18.7279 13.0199 18.6438C13.1783 18.5545 13.2385 18.3554 13.1507 18.1957C13.0904 18.0876 12.9751 18.0241 12.858 18.0241C12.8063 18.0258 12.7547 18.0378 12.7065 18.0635ZM20.563 18.8996C20.2738 19.054 20.1688 19.4145 20.3237 19.6978C20.477 19.9845 20.8351 20.0909 21.1261 19.9347C21.4136 19.7853 21.5186 19.4231 21.3637 19.1382C21.2552 18.9408 21.052 18.8275 20.842 18.8275C20.7473 18.8275 20.6526 18.8515 20.563 18.8996ZM13.619 19.2412C13.4279 19.3407 13.3556 19.5828 13.4589 19.7716C13.5605 19.9639 13.7998 20.0343 13.9909 19.9278C14.1803 19.83 14.2527 19.5914 14.1511 19.3991C14.0805 19.2686 13.9445 19.1965 13.805 19.1965C13.743 19.1948 13.6793 19.2103 13.619 19.2412ZM19.2838 19.775C18.9601 19.9484 18.8344 20.3536 19.0152 20.6797C19.1908 21.0024 19.5988 21.1226 19.926 20.9509C20.2497 20.7724 20.3719 20.3656 20.1963 20.048C20.0741 19.8231 19.8433 19.6926 19.604 19.6926C19.4955 19.6909 19.3853 19.7167 19.2838 19.775ZM14.8708 20.0652C14.6418 20.1888 14.5609 20.4634 14.6848 20.6866C14.8002 20.9097 15.0826 20.9956 15.3064 20.8754C15.5302 20.7501 15.6146 20.4686 15.4924 20.2488C15.408 20.0978 15.2479 20.0102 15.086 20.0102C15.0137 20.0085 14.9397 20.0257 14.8708 20.0652ZM17.8529 20.3587C17.5637 20.5115 17.4638 20.8685 17.6205 21.1587C17.7703 21.4436 18.1284 21.5552 18.4177 21.3956C18.7069 21.2445 18.8103 20.884 18.657 20.599C18.5485 20.4016 18.3454 20.29 18.1353 20.29C18.0389 20.2883 17.9425 20.3106 17.8529 20.3587ZM16.3274 20.4497C16.0726 20.587 15.9813 20.908 16.1156 21.1604C16.2568 21.4162 16.5736 21.5123 16.8302 21.375C17.0885 21.2411 17.1832 20.92 17.0437 20.6625C16.9507 20.4874 16.7682 20.3896 16.5788 20.3896C16.4944 20.3896 16.4066 20.4085 16.3274 20.4497Z" fill="#6B767E"/>
<path d="M16.3384 8.98777C16.2213 9.38431 16.4469 9.79802 16.8464 9.91819C17.2441 10.0349 17.659 9.80489 17.7796 9.41178C17.8984 9.01523 17.6711 8.59637 17.2734 8.47964C17.201 8.45904 17.1287 8.44874 17.0581 8.44874C16.7327 8.45045 16.4366 8.66332 16.3384 8.98777ZM18.3512 9.22981C18.2169 9.68816 18.4717 10.162 18.9349 10.2976C19.3912 10.4332 19.8698 10.174 20.0041 9.71906C20.1419 9.259 19.8802 8.77833 19.4205 8.64444C19.3395 8.6204 19.2586 8.6101 19.1777 8.6101C18.804 8.61182 18.4614 8.85558 18.3512 9.22981ZM14.3188 9.40491C14.2155 9.75854 14.4203 10.1276 14.775 10.2323C15.1263 10.3353 15.4999 10.1362 15.6032 9.78086C15.7031 9.43066 15.4999 9.05987 15.1504 8.95515C15.0884 8.93627 15.0264 8.9294 14.9644 8.9294C14.6735 8.92768 14.4066 9.11651 14.3188 9.40491ZM20.3881 10.1774C20.271 10.5722 20.5 10.9894 20.8977 11.1061C21.2955 11.2228 21.7139 10.9928 21.831 10.5963C21.9498 10.2014 21.7225 9.78429 21.323 9.66584C21.2524 9.64524 21.1801 9.63494 21.1112 9.63494C20.7858 9.63494 20.4862 9.84952 20.3881 10.1774ZM12.5832 10.4675C12.5005 10.7473 12.6589 11.0357 12.9396 11.1198C13.2185 11.2005 13.5112 11.0392 13.5922 10.7628C13.6731 10.4864 13.513 10.1946 13.2357 10.1122C13.1858 10.0984 13.1359 10.0916 13.0877 10.0916C12.8587 10.0899 12.6503 10.2392 12.5832 10.4675ZM22.0186 11.6589C21.9136 12.0159 22.1185 12.3833 22.4697 12.4863C22.8244 12.5893 23.1929 12.385 23.2997 12.0314C23.4047 11.6812 23.2032 11.3121 22.8468 11.2091C22.7848 11.1902 22.7211 11.1816 22.6592 11.1816C22.3733 11.1834 22.1082 11.3705 22.0186 11.6589ZM11.2092 12.0417C11.142 12.2648 11.2729 12.5017 11.4985 12.5653C11.724 12.6305 11.9582 12.5035 12.0271 12.2803C12.0976 12.0571 11.9633 11.8219 11.7395 11.7533C11.6999 11.743 11.662 11.7378 11.6241 11.7378C11.4365 11.7361 11.2643 11.8528 11.2092 12.0417ZM23.1791 13.5678C23.0948 13.851 23.2601 14.1411 23.5355 14.2201C23.8162 14.3025 24.1072 14.1429 24.1881 13.8648C24.2708 13.5867 24.1123 13.2948 23.8334 13.2159C23.7835 13.2004 23.7318 13.1935 23.6819 13.1935C23.4546 13.1935 23.2446 13.3429 23.1791 13.5678ZM10.4017 13.9952C10.3517 14.1652 10.4447 14.3437 10.6135 14.3935C10.7839 14.4433 10.9595 14.3437 11.0095 14.1755C11.0594 14.009 10.963 13.8321 10.7925 13.7824C10.7615 13.7738 10.7323 13.7703 10.703 13.7703C10.567 13.7686 10.4413 13.8579 10.4017 13.9952ZM23.6716 15.6913C23.6027 15.9127 23.7318 16.153 23.9608 16.2166C24.1864 16.2835 24.4206 16.1548 24.4894 15.9282C24.5549 15.7067 24.4292 15.4698 24.2002 15.4029C24.1606 15.3926 24.121 15.3857 24.0813 15.3857C23.8954 15.384 23.7232 15.5059 23.6716 15.6913ZM10.0194 16.0758C9.95228 16.3007 10.0849 16.5341 10.3104 16.6011C10.536 16.668 10.7701 16.541 10.839 16.3144C10.9062 16.0912 10.777 15.8544 10.5515 15.7874C10.5119 15.7771 10.4723 15.7702 10.4327 15.7702C10.2484 15.7702 10.078 15.8921 10.0194 16.0758ZM23.4977 17.8319C23.4512 17.9984 23.5459 18.177 23.7112 18.225C23.8833 18.2748 24.0572 18.1804 24.1055 18.0087C24.1571 17.8439 24.0624 17.6654 23.8902 17.6156C23.861 17.607 23.8334 17.6036 23.8041 17.6036C23.6681 17.6036 23.539 17.6946 23.4977 17.8319ZM10.3242 18.1426C10.245 18.419 10.3965 18.7126 10.6789 18.7932C10.9561 18.8774 11.2488 18.7143 11.3297 18.4362C11.4124 18.1581 11.2522 17.8663 10.975 17.7907C10.9234 17.7753 10.8717 17.7684 10.8201 17.7684C10.5945 17.7667 10.3879 17.916 10.3242 18.1426ZM22.4818 19.7254C22.4181 19.952 22.5455 20.1889 22.7676 20.2524C22.9966 20.3193 23.2342 20.1906 23.2997 19.9657C23.3634 19.7443 23.236 19.5039 23.0104 19.437C22.9708 19.4267 22.9312 19.4198 22.8916 19.4198C22.7091 19.4198 22.5386 19.54 22.4818 19.7254ZM11.2075 19.9709C11.1024 20.3228 11.3039 20.6919 11.6586 20.7983C12.0167 20.903 12.3835 20.7004 12.4902 20.3485C12.5935 19.9966 12.3869 19.6224 12.0339 19.5177C11.9702 19.4988 11.9082 19.4902 11.8463 19.4902C11.5587 19.4902 11.2953 19.679 11.2075 19.9709ZM20.9167 21.2429C20.8375 21.5193 20.9993 21.8111 21.2765 21.8935C21.5538 21.9759 21.8465 21.8163 21.9257 21.5416C22.01 21.2618 21.8516 20.97 21.5727 20.8893C21.5228 20.8738 21.4711 20.867 21.4212 20.867C21.1939 20.867 20.9856 21.018 20.9167 21.2429ZM12.6813 21.4129C12.566 21.806 12.7881 22.2214 13.1893 22.3398C13.5904 22.4549 14.0054 22.2265 14.1242 21.8334C14.2396 21.4403 14.0123 21.0197 13.6128 20.903C13.5405 20.8824 13.4699 20.8721 13.401 20.8721C13.0739 20.8721 12.7778 21.085 12.6813 21.4129ZM14.503 22.2883C14.3704 22.7484 14.627 23.2239 15.0884 23.3595C15.5447 23.49 16.0285 23.2273 16.1576 22.7759C16.2919 22.3175 16.0337 21.8386 15.5722 21.7047C15.4913 21.6824 15.4104 21.6703 15.3295 21.6703C14.9558 21.6703 14.6115 21.9141 14.503 22.2883ZM18.9056 22.2248C18.8023 22.5785 19.0072 22.9492 19.3585 23.0522C19.7149 23.1552 20.0851 22.9561 20.1884 22.6008C20.2917 22.2506 20.0919 21.8798 19.7355 21.7768C19.6718 21.7562 19.6081 21.7476 19.5461 21.7476C19.2569 21.7476 18.99 21.9364 18.9056 22.2248ZM16.7276 22.5973C16.6122 22.9904 16.8412 23.4042 17.2372 23.5226C17.6367 23.6428 18.0551 23.4145 18.1687 23.0196C18.2823 22.6214 18.0602 22.2042 17.6608 22.0892C17.5885 22.0686 17.5179 22.0583 17.4473 22.0583C17.1236 22.0583 16.824 22.2695 16.7276 22.5973Z" fill="#6B767E"/>
<path d="M17.7737 6.41752C17.45 6.76085 17.4655 7.30159 17.8116 7.62432C18.156 7.94877 18.6983 7.93332 19.0203 7.58999C19.3457 7.24494 19.3268 6.70763 18.9842 6.38147C18.8189 6.22697 18.6088 6.15144 18.3987 6.15144C18.1715 6.15144 17.9425 6.24071 17.7737 6.41752ZM15.0619 6.62695C14.8071 6.89818 14.8191 7.32219 15.0912 7.57969C15.3615 7.83204 15.7885 7.8183 16.045 7.54879C16.2981 7.27928 16.2861 6.85183 16.0158 6.59777C15.8849 6.47589 15.7196 6.41581 15.5543 6.41581C15.3735 6.41752 15.1945 6.4879 15.0619 6.62695ZM20.4305 7.13851C20.0654 7.52304 20.0809 8.12902 20.4683 8.49466C20.854 8.85859 21.4687 8.83971 21.8303 8.4569C22.1936 8.07065 22.1781 7.46124 21.7907 7.09903C21.603 6.92393 21.3654 6.83638 21.1278 6.83638C20.8747 6.83467 20.6199 6.93767 20.4305 7.13851ZM12.474 7.67067C12.2674 7.88869 12.2778 8.2303 12.4964 8.43973C12.7168 8.64401 13.0629 8.63543 13.2695 8.4157C13.4761 8.19768 13.4658 7.85264 13.2471 7.64836C13.1404 7.55051 13.0061 7.50072 12.8718 7.50072C12.7254 7.50072 12.5825 7.55737 12.474 7.67067ZM22.6791 8.64058C22.2573 9.08347 22.2745 9.77871 22.7222 10.1993C23.1664 10.6216 23.8689 10.5976 24.2873 10.1581C24.7074 9.71005 24.6868 9.01137 24.2425 8.59251C24.0273 8.39166 23.7553 8.2921 23.4849 8.2921C23.1905 8.2921 22.8961 8.40883 22.6791 8.64058ZM10.3252 9.50405C10.1703 9.66885 10.1772 9.92291 10.3407 10.0774C10.5077 10.2336 10.7643 10.225 10.9158 10.062C11.0708 9.89716 11.0622 9.64138 10.9003 9.48688C10.8194 9.41478 10.7178 9.37873 10.6179 9.37873C10.5112 9.37702 10.4044 9.41993 10.3252 9.50405ZM24.5249 10.9838C24.1599 11.3683 24.1754 11.9777 24.5662 12.3417C24.9554 12.7056 25.5649 12.6833 25.9264 12.3005C26.2932 11.9125 26.276 11.3082 25.8851 10.9409C25.7009 10.7675 25.465 10.6817 25.2291 10.6817C24.9708 10.6817 24.7143 10.783 24.5249 10.9838ZM8.61893 11.7511C8.41059 11.9692 8.42265 12.3125 8.64304 12.5202C8.86171 12.7245 9.20607 12.7159 9.41441 12.4996C9.61758 12.2816 9.60897 11.9383 9.3903 11.7323C9.28527 11.6327 9.15096 11.5829 9.01666 11.5829C8.87203 11.5812 8.7274 11.6396 8.61893 11.7511ZM25.5597 13.7287C25.2343 14.072 25.2515 14.6128 25.5976 14.9355C25.9419 15.2617 26.486 15.2428 26.808 14.8995C27.1334 14.5579 27.1162 14.0171 26.7719 13.6944C26.6066 13.5382 26.3948 13.4609 26.183 13.4609C25.9557 13.4592 25.7284 13.5502 25.5597 13.7287ZM7.72876 14.3913C7.47738 14.6626 7.48426 15.0849 7.75803 15.3389C8.02835 15.5947 8.45537 15.5793 8.71191 15.3115C8.96674 15.0419 8.95124 14.6128 8.68436 14.3604C8.55178 14.2368 8.38477 14.1768 8.21948 14.1768C8.04041 14.1785 7.86134 14.2489 7.72876 14.3913ZM25.7766 16.6899C25.5218 16.9594 25.5373 17.3852 25.8076 17.6392C26.0814 17.8967 26.505 17.8813 26.7615 17.6101C27.0163 17.3405 27.0077 16.9165 26.7322 16.6607C26.6031 16.5389 26.4378 16.4788 26.2708 16.4788C26.09 16.4805 25.9092 16.5509 25.7766 16.6899ZM7.68056 17.1019C7.35858 17.4435 7.37407 17.986 7.71843 18.3087C8.06279 18.6349 8.60516 18.6177 8.92886 18.2744C9.25256 17.9328 9.23706 17.392 8.8927 17.0642C8.72741 16.9097 8.51734 16.8324 8.30728 16.8324C8.07829 16.8324 7.85102 16.9234 7.68056 17.1019ZM25.0759 19.5035C24.8675 19.7215 24.8779 20.0666 25.0983 20.276C25.3204 20.482 25.6647 20.4717 25.8731 20.2485C26.078 20.0305 26.0694 19.6855 25.8507 19.4795C25.7439 19.3816 25.6096 19.3336 25.4753 19.3318C25.329 19.3318 25.1843 19.3885 25.0759 19.5035ZM8.56384 19.7026C8.19882 20.0855 8.21087 20.6931 8.59999 21.0605C8.99084 21.4227 9.60036 21.4021 9.96194 21.0193C10.327 20.6348 10.308 20.0237 9.92233 19.6632C9.73638 19.4881 9.50049 19.4005 9.26633 19.4005C9.0115 19.3988 8.75324 19.5035 8.56384 19.7026ZM10.2013 21.8467C9.78287 22.2965 9.80353 22.9866 10.2495 23.4089C10.6937 23.8277 11.3962 23.8089 11.8129 23.3625C12.233 22.9179 12.2123 22.2227 11.7664 21.8004C11.5512 21.5995 11.2791 21.5 11.0071 21.5C10.7126 21.4983 10.4182 21.615 10.2013 21.8467ZM23.571 21.9446C23.4178 22.1077 23.4264 22.3652 23.5882 22.5179C23.7535 22.669 24.0101 22.6621 24.1633 22.4973C24.3183 22.3377 24.3114 22.0785 24.1461 21.9274C24.0686 21.8536 23.9688 21.8158 23.8672 21.8158H23.8655C23.757 21.8158 23.6502 21.8588 23.571 21.9446ZM12.6565 23.5496C12.2932 23.929 12.3105 24.5384 12.6996 24.9058C13.087 25.2697 13.6982 25.2508 14.0598 24.8646C14.4231 24.4784 14.4093 23.8707 14.0202 23.5067C13.8343 23.3316 13.5967 23.2458 13.3608 23.2458C13.1025 23.2458 12.8477 23.3471 12.6565 23.5496ZM21.2208 23.5857C21.0124 23.8037 21.0228 24.1505 21.2414 24.3548C21.4635 24.5625 21.8079 24.5505 22.0145 24.3307C22.2211 24.1144 22.2125 23.7711 21.9921 23.5634C21.8871 23.4638 21.7511 23.414 21.6168 23.414C21.4722 23.4157 21.3275 23.4724 21.2208 23.5857ZM15.4665 24.4114C15.1428 24.753 15.1583 25.2972 15.5044 25.6165C15.8522 25.9427 16.3911 25.9272 16.7131 25.5839C17.0385 25.2423 17.0247 24.6998 16.6804 24.3771C16.5151 24.2209 16.305 24.1436 16.0933 24.1436C15.8625 24.1453 15.6353 24.2346 15.4665 24.4114ZM18.4452 24.4543C18.1921 24.7221 18.2042 25.1478 18.4745 25.4036C18.7466 25.6594 19.1736 25.6422 19.4284 25.3744C19.6832 25.1066 19.6729 24.6792 19.4008 24.4251C19.27 24.3033 19.103 24.2432 18.9394 24.2432C18.7586 24.2432 18.5778 24.3136 18.4452 24.4543Z" fill="#6B767E"/>
<path d="M19.145 3.4829C18.7421 3.56359 18.4821 3.94811 18.563 4.35153C18.644 4.74979 19.0331 5.009 19.4343 4.93003C19.8354 4.84935 20.0954 4.46139 20.0145 4.06141C19.9439 3.7095 19.6357 3.46745 19.2896 3.46745C19.2449 3.46917 19.1949 3.47432 19.145 3.4829ZM16.075 3.68547C15.7599 3.73353 15.5413 4.02365 15.586 4.33951C15.6343 4.65537 15.9287 4.87167 16.2438 4.82532C16.5589 4.77897 16.7792 4.48714 16.7328 4.17128C16.6914 3.8846 16.4435 3.6786 16.1594 3.6786C16.1318 3.6786 16.1043 3.68032 16.075 3.68547ZM22.103 4.10776C21.6244 4.22964 21.3317 4.71546 21.4556 5.19612C21.5796 5.67334 22.0686 5.96517 22.5473 5.84157C23.0259 5.71969 23.3169 5.23045 23.1947 4.75494C23.0896 4.34809 22.7263 4.08201 22.3252 4.08201C22.2546 4.0803 22.1788 4.08888 22.103 4.10776ZM12.9345 4.61417C12.6607 4.7309 12.5333 5.04505 12.6521 5.31972C12.7692 5.59094 13.0877 5.71626 13.3598 5.59953C13.6318 5.48279 13.7609 5.16522 13.6421 4.8957C13.5543 4.69142 13.3563 4.57126 13.148 4.57126C13.0791 4.56954 13.0051 4.58499 12.9345 4.61417ZM24.7253 5.43129C24.1365 5.61498 23.8042 6.23812 23.9901 6.82864C24.1727 7.41574 24.8028 7.74362 25.3917 7.55994C25.9823 7.37625 26.3094 6.74968 26.1252 6.16258C25.9754 5.68536 25.5363 5.37979 25.0611 5.37979C24.9509 5.37979 24.8373 5.39696 24.7253 5.43129ZM10.1004 6.25357C9.85073 6.45098 9.80768 6.8132 10.0057 7.06383C10.2054 7.31446 10.5704 7.35565 10.8184 7.15824C11.0698 6.95911 11.1145 6.59861 10.9148 6.34798C10.7994 6.20379 10.6324 6.12997 10.462 6.12997C10.3346 6.12997 10.2071 6.17117 10.1004 6.25357ZM26.8793 7.51359C26.2388 7.75049 25.9117 8.45431 26.1493 9.09462C26.3869 9.73321 27.0963 10.0577 27.7333 9.82248C28.3721 9.5873 28.6993 8.87832 28.4634 8.24144C28.2774 7.74362 27.8074 7.43805 27.308 7.43805C27.1651 7.43634 27.0205 7.46209 26.8793 7.51359ZM7.84828 8.34101C7.51425 8.57791 7.43333 9.03454 7.67093 9.371C7.90854 9.70231 8.36998 9.78128 8.70229 9.5461C9.03632 9.3092 9.11552 8.84742 8.87964 8.51783C8.73501 8.31354 8.50601 8.2054 8.27529 8.2054C8.12893 8.2054 7.97914 8.24831 7.84828 8.34101ZM28.379 10.1212C27.6972 10.4147 27.3821 11.1975 27.6765 11.879C27.9692 12.5571 28.7595 12.8712 29.4396 12.5794C30.1197 12.2859 30.4348 11.4979 30.1404 10.8198C29.9217 10.3134 29.4276 10.0113 28.9093 10.0113C28.732 10.0113 28.5512 10.0474 28.379 10.1212ZM6.27111 10.9125C5.85444 11.1769 5.72702 11.728 5.9939 12.1468C6.25734 12.564 6.81348 12.6893 7.23015 12.4266C7.65027 12.1623 7.77424 11.6078 7.50908 11.1889C7.33863 10.9194 7.04937 10.7735 6.7515 10.7735C6.58793 10.7735 6.42091 10.8198 6.27111 10.9125ZM29.2175 13.2506C28.608 13.551 28.3566 14.2892 28.6597 14.8969C28.9644 15.5097 29.7031 15.7552 30.3126 15.4531C30.9221 15.1527 31.1735 14.4179 30.8704 13.8068C30.6552 13.3742 30.2162 13.1236 29.7616 13.1236C29.5791 13.1236 29.3931 13.1648 29.2175 13.2506ZM5.43777 13.7261C4.89884 14.0265 4.70772 14.7046 5.01075 15.2436C5.31207 15.7792 5.9939 15.9715 6.53283 15.6694C7.07175 15.369 7.26287 14.6874 6.95983 14.1501C6.75494 13.7862 6.37614 13.5819 5.9853 13.5819C5.80106 13.5819 5.61167 13.6266 5.43777 13.7261ZM29.2588 16.5019C28.7216 16.8024 28.5288 17.4839 28.8318 18.0212C29.1349 18.5602 29.8167 18.7473 30.3539 18.4452C30.8928 18.1431 31.0857 17.4667 30.7809 16.9277C30.576 16.5637 30.1972 16.3577 29.8064 16.3577C29.6221 16.3577 29.4327 16.4058 29.2588 16.5019ZM5.48081 16.7165C4.87302 17.0152 4.61819 17.7517 4.92295 18.3628C5.22599 18.9722 5.96808 19.2194 6.5776 18.919C7.18711 18.6186 7.43849 17.8804 7.13546 17.2727C6.91851 16.8367 6.48633 16.5878 6.0335 16.5878C5.84583 16.5878 5.65643 16.629 5.48081 16.7165ZM6.35548 19.5919C5.67537 19.8837 5.35856 20.6682 5.65299 21.3515C5.9457 22.0313 6.73945 22.342 7.41783 22.0501C8.09794 21.7566 8.41131 20.9687 8.11688 20.2906C7.89822 19.7842 7.40405 19.4838 6.88579 19.4838C6.70845 19.482 6.52766 19.5164 6.35548 19.5919ZM28.5632 19.7447C28.1448 20.0108 28.0192 20.5618 28.2843 20.979C28.5495 21.3978 29.1039 21.5197 29.5223 21.2571C29.939 20.9927 30.0664 20.4434 29.7995 20.0228C29.629 19.7533 29.3363 19.6074 29.0402 19.6074C28.8766 19.6056 28.7113 19.6503 28.5632 19.7447ZM8.05834 22.3488C7.42127 22.5857 7.09241 23.293 7.33002 23.9282C7.56763 24.5702 8.27873 24.8912 8.91408 24.6543C9.55459 24.4174 9.88173 23.7153 9.64412 23.0733C9.45989 22.5789 8.98811 22.2716 8.48706 22.2716C8.34415 22.2716 8.19953 22.2973 8.05834 22.3488ZM27.0894 22.6252C26.7553 22.8621 26.6761 23.3222 26.912 23.6552C27.1514 23.99 27.6111 24.0672 27.9468 23.832C28.2791 23.5968 28.3583 23.1368 28.1207 22.8003C27.9761 22.5978 27.7471 22.4896 27.5147 22.4896C27.3683 22.4896 27.2185 22.5325 27.0894 22.6252ZM10.4017 24.6114C9.81285 24.7933 9.48398 25.4182 9.66994 26.007C9.85417 26.5993 10.4792 26.9237 11.068 26.7383C11.6586 26.5563 11.9892 25.9332 11.805 25.3444C11.6552 24.8672 11.2127 24.5599 10.7357 24.5599C10.6238 24.5599 10.5119 24.577 10.4017 24.6114ZM24.975 25.0114C24.7253 25.2105 24.6823 25.5727 24.8803 25.8216C25.0783 26.074 25.4433 26.1117 25.693 25.916C25.9444 25.7169 25.9874 25.3564 25.7877 25.1041C25.6741 24.9599 25.5053 24.886 25.3349 24.886C25.2092 24.8878 25.0818 24.9272 24.975 25.0114ZM13.2461 26.3315C12.7675 26.4533 12.4782 26.9392 12.6004 27.4181C12.7227 27.9005 13.21 28.1854 13.6903 28.0636C14.1707 27.94 14.4617 27.4576 14.3395 26.9769C14.2362 26.5718 13.8711 26.304 13.4699 26.304C13.3959 26.304 13.3219 26.3109 13.2461 26.3315ZM22.4319 26.5718C22.1599 26.6868 22.0325 27.0044 22.1513 27.2756C22.2701 27.5503 22.5869 27.6739 22.8589 27.5571C23.1327 27.4404 23.2601 27.1228 23.1413 26.8499C23.0535 26.6473 22.8538 26.5254 22.6454 26.5254C22.5748 26.5272 22.5042 26.5409 22.4319 26.5718ZM16.3574 27.2396C15.9562 27.3202 15.6962 27.7099 15.7772 28.1082C15.8581 28.5099 16.2489 28.7691 16.6501 28.6884C17.0496 28.606 17.3113 28.2198 17.2304 27.8164C17.1598 27.4662 16.8498 27.2241 16.5038 27.2241C16.4555 27.2241 16.4073 27.2293 16.3574 27.2396ZM19.5496 27.3443C19.2345 27.3906 19.0159 27.6842 19.0624 28C19.1088 28.3159 19.4033 28.5322 19.7184 28.4858C20.0352 28.4395 20.2556 28.1477 20.2073 27.8318C20.166 27.5434 19.9164 27.3374 19.6323 27.3374C19.6064 27.3374 19.5772 27.3391 19.5496 27.3443Z" fill="#6B767E"/>
<path d="M16.5404 0.686659C16.5404 1.06775 16.8503 1.37503 17.2291 1.37503C17.6114 1.37503 17.9213 1.06775 17.9213 0.686659C17.9213 0.303847 17.6114 1.90735e-06 17.2291 1.90735e-06C16.8503 1.90735e-06 16.5404 0.303847 16.5404 0.686659ZM20.4902 1.01626C20.3835 1.4128 20.6193 1.81621 21.0136 1.92093C21.4096 2.02736 21.8177 1.79389 21.9227 1.39907C22.0295 1.00424 21.7919 0.600829 21.3959 0.494396C21.3322 0.47723 21.2667 0.468645 21.203 0.468645C20.8776 0.470361 20.5797 0.686659 20.4902 1.01626ZM13.0641 0.496113C12.6698 0.600826 12.4322 1.00424 12.539 1.39907C12.644 1.79389 13.0538 2.02736 13.4463 1.92093C13.8424 1.81621 14.0782 1.41108 13.9732 1.01454C13.8837 0.684943 13.5858 0.468645 13.2587 0.468645C13.195 0.470361 13.1295 0.47723 13.0641 0.496113ZM23.9837 2.5372C23.8753 3.04877 24.2024 3.55174 24.7138 3.65989C25.2269 3.76804 25.7296 3.44188 25.8398 2.93375C25.95 2.41876 25.6212 1.91921 25.1098 1.81278C25.0426 1.79905 24.9755 1.79218 24.9083 1.79218C24.471 1.79046 24.0784 2.09259 23.9837 2.5372ZM9.3519 1.81106C8.84053 1.91921 8.51167 2.41876 8.62014 2.93375C8.72861 3.44359 9.23311 3.76975 9.74448 3.65989C10.2576 3.55174 10.5847 3.04877 10.4762 2.5372C10.3815 2.09259 9.98898 1.79046 9.55164 1.79046C9.48621 1.79046 9.41905 1.79561 9.3519 1.81106ZM26.9573 4.99201C26.8574 5.61687 27.2861 6.20568 27.9129 6.30524C28.5362 6.40481 29.1285 5.97565 29.2266 5.35079C29.3265 4.72249 28.896 4.14055 28.2727 4.03927C28.2108 4.03068 28.1505 4.02554 28.0902 4.02554C27.5341 4.02554 27.0468 4.42552 26.9573 4.99201ZM6.19069 4.03927C5.56568 4.13883 5.13695 4.72078 5.23682 5.34907C5.33496 5.97393 5.9238 6.40137 6.55054 6.30353C7.17899 6.20396 7.60773 5.61515 7.50787 4.99029C7.41833 4.4238 6.92934 4.02382 6.37492 4.02382C6.31294 4.02554 6.25267 4.02897 6.19069 4.03927ZM29.1061 8.19355C29.0234 8.97806 29.5968 9.68188 30.3819 9.76428C31.1705 9.84668 31.8747 9.27676 31.9557 8.49225C32.0383 7.70431 31.4684 7.00391 30.6815 6.92152C30.6299 6.91637 30.5799 6.91465 30.53 6.91465C29.8086 6.91465 29.1836 7.45711 29.1061 8.19355ZM3.78017 6.92152C2.99159 7.00391 2.42167 7.70431 2.50604 8.49225C2.58868 9.27676 3.29118 9.84668 4.07976 9.76428C4.86662 9.68188 5.43827 8.97806 5.35562 8.19355C5.27814 7.45711 4.65657 6.91465 3.93341 6.91465C3.88176 6.91465 3.8301 6.91465 3.78017 6.92152ZM30.4939 11.9513C30.4491 12.8199 31.1171 13.5615 31.9867 13.6079C32.8596 13.6525 33.6051 12.9864 33.6499 12.1161C33.6964 11.244 33.0232 10.5076 32.1554 10.4612C32.1261 10.4595 32.0968 10.4595 32.0693 10.4595C31.2342 10.4595 30.5386 11.1067 30.4939 11.9513ZM2.30631 10.463C1.44025 10.5076 0.767028 11.244 0.811795 12.1178C0.858284 12.9864 1.60382 13.6542 2.47505 13.6096C3.34628 13.5632 4.01433 12.8216 3.96956 11.953C3.9248 11.1084 3.2292 10.4612 2.3924 10.4612C2.36485 10.4595 2.33386 10.4612 2.30631 10.463ZM30.8709 15.9974C30.8709 16.945 31.6388 17.7141 32.5876 17.7141C33.538 17.7141 34.3076 16.945 34.3076 15.9991C34.3076 15.0464 33.538 14.2859 32.591 14.2859C31.6389 14.2859 30.8709 15.0464 30.8709 15.9974ZM0.152344 15.9991C0.152344 16.945 0.925431 17.7141 1.87414 17.7141C2.82113 17.7141 3.58905 16.945 3.58905 15.9974C3.58905 15.0464 2.82113 14.2876 1.87414 14.2876C0.925431 14.2859 0.152344 15.0464 0.152344 15.9991ZM31.9849 18.3904C31.1171 18.4351 30.4474 19.1767 30.4921 20.0453C30.5369 20.919 31.2807 21.58 32.1537 21.5353C33.0214 21.4907 33.6929 20.756 33.6482 19.8805C33.6051 19.041 32.9044 18.3887 32.0693 18.3887C32.04 18.3887 32.0125 18.3887 31.9849 18.3904ZM0.813518 19.8805C0.768752 20.756 1.44025 21.4907 2.30804 21.5353C3.18099 21.58 3.9248 20.9208 3.97129 20.0453C4.01778 19.1767 3.348 18.4351 2.47677 18.3904C2.44922 18.3887 2.42168 18.3887 2.39413 18.3887C1.55733 18.3887 0.856563 19.041 0.813518 19.8805ZM30.3819 22.2357C29.5968 22.3181 29.0234 23.0219 29.1061 23.8064C29.1887 24.5944 29.8964 25.1592 30.6815 25.0768C31.4684 24.9944 32.04 24.2957 31.9557 23.5078C31.8782 22.773 31.2583 22.2289 30.5335 22.2289C30.4835 22.2271 30.4319 22.2289 30.3819 22.2357ZM2.50604 23.506C2.42339 24.294 2.99331 24.9927 3.78017 25.075C4.56703 25.1574 5.27297 24.5927 5.3539 23.8047C5.43654 23.0202 4.8649 22.3164 4.07804 22.234C4.02639 22.2271 3.97645 22.2254 3.92652 22.2254C3.20337 22.2271 2.58352 22.773 2.50604 23.506ZM27.9129 25.6965C27.2861 25.796 26.8557 26.3814 26.9573 27.008C27.0571 27.6363 27.646 28.0586 28.2727 27.9607C28.8977 27.8612 29.3282 27.2792 29.2266 26.6492C29.1371 26.0844 28.6464 25.6827 28.0919 25.6827C28.0334 25.681 27.9731 25.6862 27.9129 25.6965ZM5.23682 26.6475C5.13695 27.2775 5.56395 27.8594 6.19069 27.959C6.81914 28.0586 7.40628 27.6363 7.50787 27.0063C7.60773 26.3814 7.17899 25.796 6.55054 25.6965C6.49027 25.6862 6.42829 25.6827 6.36975 25.6827C5.81361 25.6827 5.32635 26.0844 5.23682 26.6475ZM24.7138 28.3384C24.2007 28.4465 23.8735 28.9495 23.9837 29.4611C24.0922 29.9744 24.5967 30.2988 25.1098 30.1907C25.6212 30.0825 25.95 29.5812 25.8398 29.0663C25.7451 28.6234 25.3508 28.3178 24.9118 28.3178C24.8481 28.3178 24.7809 28.3247 24.7138 28.3384ZM8.62186 29.0663C8.51167 29.5812 8.84053 30.0808 9.3519 30.1907C9.86328 30.2988 10.3678 29.9726 10.4762 29.4611C10.5847 28.9512 10.2576 28.4465 9.7462 28.3384C9.68077 28.3247 9.61362 28.3178 9.54992 28.3178C9.11086 28.3178 8.71656 28.6234 8.62186 29.0663ZM21.0136 30.0774C20.6193 30.1838 20.3835 30.5889 20.4885 30.9837C20.5952 31.3769 21.0016 31.6103 21.3959 31.5039C21.7919 31.3992 22.0295 30.9958 21.9227 30.5992C21.8349 30.2696 21.5336 30.0516 21.2048 30.0516C21.1428 30.0516 21.0791 30.0585 21.0136 30.0774ZM12.539 30.5992C12.4339 30.994 12.6698 31.3975 13.0641 31.5022C13.4601 31.6086 13.8665 31.3751 13.9732 30.9803C14.0782 30.5872 13.8441 30.1821 13.4463 30.0756C13.3826 30.0585 13.3189 30.0499 13.2552 30.0499C12.9298 30.0516 12.6285 30.2679 12.539 30.5992ZM16.5404 31.3133C16.5404 31.6944 16.8503 32 17.2291 32C17.6114 32 17.9213 31.6944 17.9213 31.3116C17.9213 30.9322 17.6114 30.625 17.2291 30.625C16.8503 30.625 16.5404 30.9322 16.5404 31.3133Z" fill="#6B767E"/>
</svg>
