<svg width="54" height="29" viewBox="0 0 54 29" fill="none" xmlns="http://www.w3.org/2000/svg">
<path d="M9.32284 0.0963085V0.664196L9.84863 0.785411C10.6568 0.987991 10.7785 1.47451 11.1014 3.01462L11.9427 7.34434L9.59774 19.9915L6.40406 4.10058C6.03973 2.35706 5.91883 1.06022 7.21303 0.776278L7.81915 0.655063V0.0963085H0.267578V0.664196L1.03598 0.867605C1.80439 1.07018 2.12732 1.43466 2.65311 3.8266L7.78686 28.1885H9.11169L12.548 9.78526L16.3569 28.1885H17.4085L22.341 4.57963C22.9074 1.86473 23.15 1.0926 24.1213 0.843528L24.8888 0.640118V0.0963085H19.3411V0.664196L20.1898 0.826093C21.4029 1.06935 21.6852 1.83899 21.1189 4.96071L18.0949 19.9915L15.0312 4.10058C14.7 2.51979 14.5054 1.06022 15.8402 0.816961L16.7295 0.655063V0.0871753L9.32284 0.0963085ZM45.2955 0.172691V0.740578L46.3057 0.98384C47.1941 1.18642 47.5585 1.51104 47.5585 2.64599V22.3062C47.5585 24.4947 47.5585 27.3732 45.2938 27.3732C44.0004 27.3732 42.9919 26.2382 43.0714 25.4678C43.1517 24.2116 45.3352 24.2921 45.4561 22.2655C45.5778 20.8541 44.6877 20.1899 43.7984 20.0761C42.5456 19.9142 41.0096 20.9678 40.9682 23.0758C40.9285 25.7907 42.7071 28.2632 45.7376 28.2632C49.0911 28.2632 51.2854 25.995 51.2854 21.6569L51.2862 2.68584C51.2862 1.5509 51.5694 1.18559 52.3775 0.98384L53.2611 0.731445V0.163558L45.2955 0.172691ZM31.6745 0C28.2382 0 26.2981 2.87846 26.2981 6.64777C26.2981 13.6608 35.3137 16.3766 35.3137 22.7005C35.3137 25.7002 34.06 27.3615 32.25 27.3615C29.5423 27.3615 27.6006 24.0796 27.1162 18.8499H26.5101V28.0922H26.9953C27.3994 26.7638 27.9252 26.6334 28.3699 26.6334C29.1383 26.6334 29.9456 28.2524 32.2905 28.2524C35.8883 28.2524 38.2324 25.1323 38.2341 20.8333C38.2341 12.4022 29.2186 10.3349 29.2186 4.29485C29.2186 2.91665 29.6227 0.890852 31.6447 0.890852C34.556 0.890852 35.8096 4.74153 36.294 9.40335H36.9001V0.162728H36.4149C36.2129 1.05441 35.8494 1.45957 35.3236 1.45957C34.3937 1.45957 33.916 0.000829788 31.6853 0.000829788L31.6745 0ZM38.1828 7.94959V8.04922L38.2018 8.0376L38.1919 7.95457L38.1828 7.94959Z" fill="#6B767E"/>
</svg>
