<svg width="237" height="36" viewBox="0 0 237 36" fill="none" xmlns="http://www.w3.org/2000/svg">
<g clip-path="url(#clip0_16463_68875)">
<g clip-path="url(#clip1_16463_68875)">
<path d="M14.0706 11.155V23.6894C15.7907 22.7748 16.995 21.1827 17.5797 19.3867L17.7176 19.4556C17.3385 23.9271 14.2423 28.3981 9.42594 28.3981C4.57515 28.3981 0.99707 24.8412 0.99707 19.1496C0.99707 14.8819 3.81818 12.2052 7.43072 9.79947C6.90285 9.66311 6.35919 9.59479 5.8134 9.59621C3.33573 9.59621 1.8913 11.2561 1.8913 12.9504H1.68395C1.64949 12.7133 1.64949 12.4762 1.64949 12.2391C1.64949 9.22416 3.26681 5.56507 7.18891 5.56507C9.70046 5.56507 11.6273 7.83471 14.5513 7.83471C15.7212 7.83471 17.1662 7.2927 17.7508 6.03932H17.8542C17.8198 8.24178 17.1323 10.512 14.07 11.155H14.0706ZM15.9279 23.9943C14.2078 25.7897 12.3504 27.3141 9.94227 27.3141C5.46996 27.3141 2.02973 23.8588 2.02973 18.8453C2.02973 15.8981 3.26798 14.306 4.64407 12.4423H4.50623C3.64588 13.2892 1.37555 15.4233 1.37555 19.048C1.37555 24.6041 4.91917 28.0255 9.56379 28.0255C12.7978 28.0255 14.9992 25.8241 15.9974 24.0288L15.9285 23.9943H15.9279ZM17.304 7.56428C16.7194 8.64828 15.4811 10.0372 12.9696 10.0372C10.458 10.0372 8.15323 8.34341 6.12296 8.34341C4.265 8.34341 2.99229 9.56291 2.51042 10.4775L2.54547 10.5453C3.19847 9.90224 4.19608 9.25804 5.8134 9.25804C8.49667 9.25804 10.2174 10.8846 12.9351 10.8846C15.8251 10.8846 17.1323 9.02091 17.3729 7.59873L17.304 7.56428V7.56428ZM7.7397 9.90167C5.98512 11.6976 4.3678 13.6624 4.3678 17.4903C4.3678 19.59 5.09031 21.7585 6.70763 23.1136L7.70524 22.6049V13.5257L6.77655 14L6.60425 13.6612L11.4212 11.0861C10.114 10.8163 8.94408 10.2398 7.7397 9.90109V9.90167ZM13.6915 11.2228C13.4508 11.2561 13.2102 11.2561 12.9351 11.2561C12.4532 11.2561 12.0064 11.2228 11.559 11.1206V21.0127L7.05165 23.4196C7.98034 24.0971 9.11579 24.503 10.5608 24.503C11.7307 24.503 12.7628 24.2659 13.6915 23.8594V11.2228V11.2228ZM8.7379 12.951L8.08372 13.3231V22.4028L8.7379 22.064V12.9504V12.951ZM28.5201 14.2377V25.9591C28.5201 29.2111 25.5956 31.4135 22.3277 32.0566L22.2588 31.9211C23.8761 31.142 24.8054 29.5498 24.8054 27.8561V15.7282L22.9474 14.0689L22.2249 14.8474V24.2992L23.257 25.2138V25.2821L20.4703 28.2632L17.2707 25.3838V25.2477L18.509 23.9604V8.98704L22.156 5.16029L22.2249 5.19359V14.2721L25.2183 11.0879L28.349 13.8662L28.9331 13.2559L29.2088 13.4936L28.5201 14.2377V14.2377ZM18.8869 25.3154V25.2477L19.6094 24.5357V8.41173L18.8869 9.15641V24.197L17.7859 25.2816V25.3487L20.4692 27.72L20.9504 27.178L18.8869 25.3149V25.3154ZM25.9058 15.1862L23.6699 13.2892L23.1881 13.7973L25.1839 15.56V27.755C25.1839 28.568 25.0116 29.4143 24.702 29.8892L24.737 29.923C25.5968 29.3127 25.9064 28.3981 25.9064 27.213V15.1862H25.9058ZM33.9906 21.0472V22.7742L37.3275 25.3493L39.2544 23.3168L39.5301 23.5872L35.0577 28.2959L30.5159 24.7051L29.8285 25.4171L29.5528 25.1461L30.3442 24.3331V15.7621L36.8468 11.0873L40.2526 16.5073L33.9906 21.0472ZM31.444 24.0288V15.4233L30.7221 15.932V24.3675L34.9882 27.7889L35.539 27.213L31.4446 24.0288H31.444ZM34.0596 13.5941L33.9906 13.6285V20.5729L37.0524 18.371L34.0596 13.5941V13.5941ZM34.9538 12.9166L34.3347 13.3569L37.3625 18.1339L37.9817 17.693L34.9538 12.9166ZM62.6784 28.2626L57.8959 24.1976L54.2495 28.2626L49.2947 24.0615V17.422H48.3316C47.4712 17.422 47.0244 17.9645 46.8176 18.6076H46.7143C46.6045 18.1869 46.5468 17.7546 46.5425 17.3203C46.5425 16.4396 46.7838 14.1361 49.2947 14.1361V8.30953C49.2947 7.19165 47.9531 6.75127 47.9531 5.26077C47.9531 3.32988 49.8105 1.43287 53.2174 0.246094L53.3553 0.347719C52.117 1.05967 51.4628 1.73718 51.4628 3.19381C51.4628 5.43014 53.6648 4.85369 53.6648 8.37671V9.73171L57.6903 5.56507L61.922 9.66454L65.913 5.56507L69.7656 9.29134V21.8257L62.6784 28.262V28.2626ZM50.3963 23.5201V16.3724H48.4688C47.4712 16.3724 47.0244 17.0155 46.9555 17.5919L46.9894 17.6264C47.334 17.2532 47.678 17.0505 48.4688 17.0505H49.6726V23.8933L54.2144 27.7556L54.7302 27.1453L50.3963 23.5201V23.5201ZM50.3963 7.97021C50.3963 6.5819 49.158 6.10707 49.158 5.22689C49.158 4.00681 49.6393 2.99113 50.3963 2.04263L50.3274 2.00875C49.2953 2.78845 48.3322 4.04183 48.3322 5.26077C48.3322 6.48085 49.6738 7.05615 49.6738 8.14073V14.1366H50.3963V7.97021V7.97021ZM57.6553 11.3583L55.0409 8.85153L53.6648 10.2404V22.2322L56.7955 24.8412L57.6553 23.8921V11.3583V11.3583ZM58.7562 23.4529V10.8846L55.8318 8.0391L55.2816 8.58111L58.0337 11.1895V23.8255L62.6784 27.7889L63.2291 27.2802L58.7562 23.4529ZM65.4305 10.9191L63.2636 8.88541L62.0254 10.1394V22.1995L65.3967 25.1122L65.4305 25.0789V10.9179V10.9191ZM66.5315 10.4442L64.02 8.0391L63.5042 8.58111L65.809 10.7491V24.9095L66.5315 24.232V10.4437V10.4442ZM81.1505 28.2626L77.882 25.3493L74.9575 28.2626L71.3794 25.1461L70.8975 25.6536L70.6224 25.3832L71.2416 24.7396V15.661L77.7097 11.0534L81.4256 13.8995L82.0798 13.222L82.3549 13.493L81.5979 14.2721V23.6561L83.4214 25.3154L84.0061 24.7057L84.2812 24.9428L81.1505 28.2626V28.2626ZM72.3426 24.5024V15.3561L71.6206 15.8637V24.8412L74.9236 27.755L75.4738 27.213L72.3431 24.503L72.3426 24.5024ZM77.882 15.5933L75.0609 13.4247L74.9575 13.493V23.3507L77.2973 25.3487L77.8814 24.7734V15.5927L77.882 15.5933ZM78.983 24.8073V15.0851L76.0585 12.7472L75.371 13.2214L78.2605 15.4572V25.1466L81.1505 27.7211L81.6668 27.1786L78.983 24.8079V24.8073ZM91.1616 17.2187H94.7053V24.4691L89.2353 28.2632C88.5128 27.4501 87.4802 26.8743 86.2075 26.8743C85.1754 26.8743 84.3495 27.213 83.2491 28.1277L83.0768 28.0599L87.7564 21.3526H84.8658V15.0507L90.612 11.1212C91.2995 11.6632 91.8152 11.9675 92.7106 11.9675C93.3987 11.9675 94.3963 11.832 95.1533 11.2228L95.2911 11.2905L91.1616 17.2187V17.2187ZM87.309 25.8913C86.3109 25.8913 85.52 26.2301 84.8314 26.7043V26.7721C85.3822 26.5349 85.9324 26.4678 86.4487 26.4678C87.2395 26.4678 88.4784 26.8404 89.3043 27.7889L90.0957 27.213C89.4415 26.4672 88.6507 25.8913 87.309 25.8913V25.8913ZM90.9893 20.1997H89.063L85.0376 25.9258L85.072 25.9935C86.0696 25.2816 87.0328 24.8079 88.2027 24.8079C89.2348 24.8079 90.3013 25.2821 90.9549 26.0951L90.9899 26.0613V20.1997H90.9893ZM85.9662 20.1997V14.7464L85.2443 15.2545V20.9455H88.0304L88.5812 20.2003H85.9668L85.9662 20.1997ZM93.1575 13.5602C92.4349 14.0689 92.022 14.3393 90.8176 14.3393C90.1296 14.3393 89.3037 14.035 88.6507 13.3569L88.5818 13.3914V18.3366H89.8889L93.1919 13.5941L93.1569 13.5596L93.1575 13.5602ZM91.5062 13.2553C90.8871 13.2553 90.0957 12.951 89.5788 12.2735L88.719 12.8488C89.3732 13.6279 89.9923 13.9667 90.9549 13.9667C91.574 13.9667 92.4688 13.7967 93.3981 13.0176L93.432 12.9166C92.8479 13.1543 92.1254 13.2553 91.5062 13.2553V13.2553ZM92.0903 19.083H89.8545L89.3381 19.7938H91.3684V26.3656L92.0909 25.8574V19.0824L92.0903 19.083ZM106.575 14.2377V25.9591C106.575 29.2111 103.65 31.4135 100.382 32.0566L100.314 31.9211C101.931 31.142 102.86 29.5498 102.86 27.8561V15.7282L101.002 14.0689L100.279 14.8474V24.2992L101.311 25.2138V25.2821L98.5251 28.2632L95.3256 25.3838V25.2477L96.5638 23.9604V8.98704L100.211 5.15972L100.279 5.19302V14.2721L103.273 11.0879L106.403 13.8662L106.988 13.2559L107.264 13.4936L106.574 14.2377H106.575ZM96.9417 25.3154V25.2477L97.6642 24.5357V8.41173L96.9417 9.15641V24.197L95.8407 25.2816V25.3493L98.524 27.7206L99.0053 27.178L96.9417 25.3154V25.3154ZM103.96 15.1862L101.724 13.2892L101.242 13.7973L103.238 15.56V27.755C103.238 28.568 103.066 29.4143 102.756 29.8892L102.791 29.923C103.651 29.3127 103.961 28.3981 103.961 27.213V15.1862H103.96ZM112.837 28.2626L109.878 25.5864L109.189 26.2978L108.914 26.0262L109.706 25.1799V15.39L108.261 14.035L107.71 14.6448L107.435 14.3738L110.53 11.0534L113.283 13.493L113.971 12.7478L114.281 12.9849L113.421 13.8995V23.7922L115.073 25.316L115.83 24.5363L116.104 24.8079L112.837 28.2626V28.2626ZM110.807 24.9428V14.8474L109.018 13.2214L108.536 13.764L110.084 15.2206V25.2821L112.837 27.7206L113.353 27.1786L110.807 24.9428ZM111.839 10.783L109.018 8.24236L111.598 5.53234L114.419 8.07241L111.839 10.7824V10.783ZM110.084 7.69978L109.568 8.20791L111.804 10.2743L112.32 9.69841L110.084 7.69978V7.69978ZM127.384 28.2626L124.391 25.5864V15.6949L122.567 14.0689L121.603 15.0851V24.2314L122.67 25.2132V25.3493L119.849 28.2626L116.65 25.3832V25.2816L117.888 23.9943V15.4572L116.271 14.0006L115.617 14.7119L115.343 14.4409L118.473 11.0873L121.604 13.8318V14.5093L124.872 11.0873L127.934 13.7973L128.622 13.0859L128.932 13.3569L128.106 14.2038V23.8921L129.654 25.3149L130.411 24.5019L130.686 24.7729L127.384 28.2626V28.2626ZM118.302 25.3154V25.2477C118.302 25.3154 118.99 24.5702 118.99 24.5702V14.9485L117.028 13.187L116.546 13.6951L118.267 15.2534V24.1964L117.2 25.281V25.3487L119.849 27.72L120.4 27.1441L118.302 25.3154V25.3154ZM125.492 25.0444V15.119L123.359 13.2214L122.808 13.7973L124.769 15.5249V25.3832L127.349 27.7545L127.9 27.178L125.492 25.0444V25.0444ZM137.086 34.3601C135.951 33.1406 135.159 32.6325 134.093 32.6325C132.958 32.6325 131.65 33.0734 130.308 33.7842L130.205 33.6832L134.953 28.2632L131.581 25.6209L130.928 26.2984L130.653 26.0613L131.409 25.2483V15.6616L137.946 11.054L141.593 13.9001L142.212 13.2226L142.488 13.4936L141.765 14.2727V25.8592C141.765 27.6201 142.762 27.5529 142.762 28.8735C142.762 30.3973 140.526 31.82 137.086 34.3607V34.3601ZM132.51 24.9767V15.39L131.788 15.8981V25.2821L135.193 27.9922L135.71 27.3818L132.51 24.9761V24.9767ZM134.919 31.7517C133.783 31.7517 132.751 32.0905 131.788 32.7341V32.8024C132.407 32.5653 133.095 32.2604 134.264 32.2604C135.332 32.2604 136.226 32.8357 137.121 33.8526L137.809 33.3106C136.948 32.3287 135.916 31.7523 134.919 31.7523V31.7517ZM139.116 28.4997C138.256 27.9577 138.049 27.3818 138.049 25.9252V25.3149L132.338 31.8189L132.373 31.8528C133.473 31.2097 134.471 30.7355 136.089 30.7355C137.465 30.7355 138.393 31.2769 139.46 32.1582C140.114 31.6162 140.561 31.0742 140.561 30.2273C140.561 29.5498 139.976 29.0417 139.116 28.4997V28.4997ZM138.049 15.5927L135.193 13.3914L135.124 13.4591V23.8588L137.327 25.5526L138.049 24.7396V15.5933V15.5927ZM140.148 28.0255C139.253 27.348 139.15 26.7721 139.15 25.3154V15.0174L136.26 12.7139L135.607 13.1543L138.428 15.3556V25.7897C138.428 27.2463 138.497 27.6534 139.425 28.2626C140.251 28.8046 140.904 29.3805 140.904 30.1596C140.904 30.3623 140.87 30.7016 140.87 30.7016L140.904 30.7355C141.077 30.5655 141.283 30.2951 141.283 29.8541C141.283 29.1095 140.905 28.6013 140.148 28.0255V28.0255ZM148.405 28.2626L145.239 25.8236L144.586 26.5349L144.311 26.2634L145.068 25.4509V13.5946H143.072L143.003 13.5263L144.207 11.7642H145.067V9.49516L148.714 5.66727L148.783 5.73559V11.7648H151.535L151.605 11.8331L150.4 13.5946H148.782V23.8594L150.675 25.2827L151.398 24.503L151.673 24.774L148.405 28.2626V28.2626ZM146.169 8.91929L145.446 9.69841V11.7654H146.169V8.91929ZM146.169 25.1122V13.5946H145.446V25.5187L148.371 27.755L148.886 27.213L146.169 25.1122V25.1122ZM162.923 14.5764V24.0615L157.109 28.2965L152.739 25.0444L152.223 25.6203L151.948 25.3493L152.567 24.6718V15.39L158.657 11.0873L162.717 14.2044L163.37 13.5269L163.646 13.7973L162.923 14.577V14.5764ZM153.669 24.3331V15.0851L152.946 15.5933V24.7057L157.075 27.8222L157.729 27.3485L153.669 24.3331H153.669ZM159.208 15.6949L156.318 13.4586L156.284 13.493V23.5872L159.208 25.7552V15.6949V15.6949ZM160.309 15.0851L157.109 12.645L156.456 13.1198L159.587 15.4911V26.0268L160.309 25.4854V15.0851V15.0851ZM176.066 28.262L173.073 25.5864V15.6949L171.249 14.0689L170.285 15.0851V24.2314L171.352 25.2132V25.3493L168.531 28.2626L165.332 25.3832V25.2816L166.57 23.9943V15.4572L164.953 14.0006L164.299 14.7119L164.025 14.4409L167.155 11.0873L170.286 13.8318V14.5093L173.554 11.0873L176.616 13.7973L177.304 13.0859L177.614 13.3569L176.788 14.2038V23.8921L178.336 25.3149L179.093 24.5019L179.368 24.7729L176.066 28.2626V28.262ZM166.983 25.3154V25.2477C166.983 25.3154 167.671 24.5702 167.671 24.5702V14.9485L165.71 13.187L165.229 13.6951L166.949 15.2534V24.1964L165.883 25.281V25.3487L168.532 27.72L169.082 27.1441L166.983 25.3154V25.3154ZM174.173 25.0444V15.119L172.041 13.2214L171.49 13.7973L173.451 15.5249V25.3832L176.031 27.7545L176.582 27.178L174.174 25.0444H174.173ZM197.32 28.2626C196.356 27.2463 196.013 26.9076 194.877 26.6027V33.2422L194.808 33.2761L193.432 32.056L189.441 35.6807L189.372 35.6474V26.5349C188.168 26.8059 186.895 27.4157 185.656 28.6346L185.587 28.6013C185.828 25.9929 187.135 24.0621 189.371 23.3168V16.7106H188.649C187.651 16.7106 187.101 17.2187 186.619 18.1333H186.516C186.413 17.829 186.343 17.3542 186.343 16.5756C186.343 15.1523 187.411 13.6624 189.165 13.6624H189.371V10.0033L187.961 8.74991L187.273 9.42741L187.032 9.19029L190.507 5.56564L193.74 8.47891V11.5621L194.497 10.7485V6.8529H194.876V10.4098L199.451 5.56507L203.338 9.05479V23.7911L197.32 28.2626V28.2626ZM189.373 25.2816C187.963 25.552 186.965 26.3994 186.311 27.5173L186.345 27.5851C187.309 26.7721 188.203 26.4 189.373 26.1284V25.2816ZM190.474 15.5594H188.582C187.274 15.5594 186.758 16.3724 186.724 17.3209L186.758 17.3548C187.171 16.6773 187.583 16.4401 188.409 16.3385H189.752V34.8011L190.474 34.1236V15.5594V15.5594ZM190.474 9.46129L188.753 7.9036L188.203 8.47891L189.751 9.83392V13.6618H190.474V9.46071V9.46129ZM194.5 11.3922L193.743 12.1713V31.7862L194.5 32.4637V11.3922V11.3922ZM199.006 10.613L196.976 8.78378L194.877 11.0201V22.9442C196.667 23.1141 197.905 23.6217 198.972 24.7734L199.006 24.7396V10.613ZM194.877 25.2816V26.1623C196.047 26.4333 196.529 26.7721 197.354 27.7206L198.146 27.1108C197.32 26.0946 196.494 25.4854 194.877 25.2816ZM200.107 10.0716L197.768 7.9369L197.217 8.51278L199.384 10.4775V26.2301L200.107 25.6881V10.071V10.0716ZM215.348 14.577V24.0621L209.533 28.2965L205.164 25.0444L204.647 25.6203L204.372 25.3493L204.991 24.6718V15.39L211.082 11.0873L215.141 14.2044L215.794 13.5269L216.07 13.7973L215.348 14.577V14.577ZM206.093 24.3331V15.0851L205.37 15.5933V24.7057L209.499 27.8222L210.153 27.3485L206.094 24.3331H206.093ZM211.632 15.6949L208.742 13.4586L208.707 13.493V23.5872L211.632 25.7552V15.6949ZM212.733 15.0851L209.533 12.645L208.88 13.1198L212.011 15.4911V26.0268L212.733 25.4854V15.0851V15.0851ZM223.329 17.2187H226.873V24.4691L221.403 28.2632C220.68 27.4501 219.648 26.8743 218.376 26.8743C217.344 26.8743 216.518 27.213 215.417 28.1277L215.245 28.0599L219.923 21.3526H217.033V15.0507L222.779 11.1212C223.468 11.6632 223.983 11.9675 224.878 11.9675C225.566 11.9675 226.563 11.832 227.32 11.2228L227.458 11.2905L223.329 17.2187V17.2187ZM219.476 25.8913C218.478 25.8913 217.687 26.2301 217 26.7043V26.7721C217.55 26.5349 218.1 26.4678 218.616 26.4678C219.408 26.4678 220.646 26.8404 221.471 27.7889L222.263 27.213C221.61 26.4672 220.818 25.8913 219.476 25.8913V25.8913ZM223.158 20.1997H221.231L217.206 25.9258L217.24 25.9935C218.238 25.2816 219.201 24.8079 220.371 24.8079C221.403 24.8079 222.469 25.2821 223.123 26.0951L223.158 26.0613V20.1997ZM218.134 20.1997V14.7464L217.412 15.2545V20.9455H220.198L220.749 20.2003H218.135L218.134 20.1997ZM225.325 13.5602C224.602 14.0689 224.19 14.3393 222.985 14.3393C222.297 14.3393 221.471 14.035 220.818 13.3569L220.749 13.3914V18.3366H222.055L225.358 13.5941L225.325 13.5596V13.5602ZM223.673 13.2553C223.054 13.2553 222.263 12.951 221.747 12.2735L220.887 12.8488C221.541 13.6279 222.16 13.9667 223.124 13.9667C223.743 13.9667 224.637 13.7967 225.566 13.0176L225.6 12.9166C225.015 13.1543 224.293 13.2553 223.673 13.2553ZM224.259 19.083H222.023L221.506 19.7938H223.536V26.3656L224.259 25.8574V19.0824V19.083ZM232.585 28.2626L229.419 25.8236L228.765 26.5349L228.491 26.2634L229.247 25.4509V13.5946H227.251L227.183 13.5263L228.386 11.7642H229.247V9.49516L232.894 5.66727L232.962 5.73559V11.7648H235.715L235.784 11.8331L234.579 13.5946H232.962V23.8594L234.855 25.2827L235.577 24.503L235.852 24.774L232.585 28.2626V28.2626ZM230.348 8.91929L229.626 9.69841V11.7654H230.348V8.91929H230.348ZM230.348 25.1122V13.5946H229.626V25.5187L232.55 27.755L233.066 27.213L230.348 25.1122H230.348Z" fill="#6B767E"/>
</g>
</g>
<defs>
<clipPath id="clip0_16463_68875">
<rect width="235.385" height="36" fill="white" transform="translate(0.767578)"/>
</clipPath>
<clipPath id="clip1_16463_68875">
<rect width="235.385" height="43.3846" fill="white" transform="translate(0.580078 -3.69531)"/>
</clipPath>
</defs>
</svg>
