<svg width="206" height="206" viewBox="0 0 206 206" fill="none" xmlns="http://www.w3.org/2000/svg">
<g clip-path="url(#clip0_368_13429)">
<rect width="205.082" height="205.107" transform="translate(0.917969)" fill="white"/>
<path d="M56.8436 0.00488281H50.6289V6.21957H56.8436V0.00488281Z" fill="#14171A"/>
<path d="M63.0623 0.00488281H56.8477V6.21957H63.0623V0.00488281Z" fill="#14171A"/>
<path d="M69.2791 0.00488281H63.0645V6.21957H69.2791V0.00488281Z" fill="#14171A"/>
<path d="M81.7049 0.00488281H75.4902V6.21957H81.7049V0.00488281Z" fill="#14171A"/>
<path d="M87.9237 0.00488281H81.709V6.21957H87.9237V0.00488281Z" fill="#14171A"/>
<path d="M94.1385 0.00488281H87.9238V6.21957H94.1385V0.00488281Z" fill="#14171A"/>
<path d="M100.348 0.00488281H94.1328V6.21957H100.348V0.00488281Z" fill="#14171A"/>
<path d="M106.566 0.00488281H100.352V6.21957H106.566V0.00488281Z" fill="#14171A"/>
<path d="M119 0.00488281H112.785V6.21957H119V0.00488281Z" fill="#14171A"/>
<path d="M150.068 0.00488281H143.854V6.21957H150.068V0.00488281Z" fill="#14171A"/>
<path d="M156.285 0.00488281H150.07V6.21957H156.285V0.00488281Z" fill="#14171A"/>
<path d="M56.8436 6.21973H50.6289V12.4344H56.8436V6.21973Z" fill="#14171A"/>
<path d="M69.2791 6.21973H63.0645V12.4344H69.2791V6.21973Z" fill="#14171A"/>
<path d="M87.9237 6.21973H81.709V12.4344H87.9237V6.21973Z" fill="#14171A"/>
<path d="M94.1385 6.21973H87.9238V12.4344H94.1385V6.21973Z" fill="#14171A"/>
<path d="M100.348 6.21973H94.1328V12.4344H100.348V6.21973Z" fill="#14171A"/>
<path d="M112.781 6.21973H106.566V12.4344H112.781V6.21973Z" fill="#14171A"/>
<path d="M119 6.21973H112.785V12.4344H119V6.21973Z" fill="#14171A"/>
<path d="M156.285 6.21973H150.07V12.4344H156.285V6.21973Z" fill="#14171A"/>
<path d="M56.8436 12.4414H50.6289V18.6561H56.8436V12.4414Z" fill="#14171A"/>
<path d="M63.0623 12.4414H56.8477V18.6561H63.0623V12.4414Z" fill="#14171A"/>
<path d="M69.2791 12.4414H63.0645V18.6561H69.2791V12.4414Z" fill="#14171A"/>
<path d="M87.9237 12.4414H81.709V18.6561H87.9237V12.4414Z" fill="#14171A"/>
<path d="M94.1385 12.4414H87.9238V18.6561H94.1385V12.4414Z" fill="#14171A"/>
<path d="M100.348 12.4414H94.1328V18.6561H100.348V12.4414Z" fill="#14171A"/>
<path d="M119 12.4414H112.785V18.6561H119V12.4414Z" fill="#14171A"/>
<path d="M131.424 12.4414H125.209V18.6561H131.424V12.4414Z" fill="#14171A"/>
<path d="M137.642 12.4414H131.428V18.6561H137.642V12.4414Z" fill="#14171A"/>
<path d="M150.068 12.4414H143.854V18.6561H150.068V12.4414Z" fill="#14171A"/>
<path d="M156.285 12.4414H150.07V18.6561H156.285V12.4414Z" fill="#14171A"/>
<path d="M63.0623 18.6562H56.8477V24.8709H63.0623V18.6562Z" fill="#14171A"/>
<path d="M81.7049 18.6562H75.4902V24.8709H81.7049V18.6562Z" fill="#14171A"/>
<path d="M94.1385 18.6562H87.9238V24.8709H94.1385V18.6562Z" fill="#14171A"/>
<path d="M100.348 18.6562H94.1328V24.8709H100.348V18.6562Z" fill="#14171A"/>
<path d="M106.566 18.6562H100.352V24.8709H106.566V18.6562Z" fill="#14171A"/>
<path d="M112.781 18.6562H106.566V24.8709H112.781V18.6562Z" fill="#14171A"/>
<path d="M119 18.6562H112.785V24.8709H119V18.6562Z" fill="#14171A"/>
<path d="M131.424 18.6553H125.209V24.87H131.424V18.6553Z" fill="#14171A"/>
<path d="M143.853 18.6562H137.639V24.8709H143.853V18.6562Z" fill="#14171A"/>
<path d="M150.068 18.6562H143.854V24.8709H150.068V18.6562Z" fill="#14171A"/>
<path d="M63.0623 24.8711H56.8477V31.0858H63.0623V24.8711Z" fill="#14171A"/>
<path d="M69.2791 24.8711H63.0645V31.0858H69.2791V24.8711Z" fill="#14171A"/>
<path d="M75.4959 24.8711H69.2812V31.0858H75.4959V24.8711Z" fill="#14171A"/>
<path d="M81.7049 24.8711H75.4902V31.0858H81.7049V24.8711Z" fill="#14171A"/>
<path d="M94.1385 24.8711H87.9238V31.0858H94.1385V24.8711Z" fill="#14171A"/>
<path d="M100.348 24.8711H94.1328V31.0858H100.348V24.8711Z" fill="#14171A"/>
<path d="M119 24.8711H112.785V31.0858H119V24.8711Z" fill="#14171A"/>
<path d="M125.209 24.8711H118.994V31.0858H125.209V24.8711Z" fill="#14171A"/>
<path d="M143.853 24.8711H137.639V31.0858H143.853V24.8711Z" fill="#14171A"/>
<path d="M156.285 24.8711H150.07V31.0858H156.285V24.8711Z" fill="#14171A"/>
<path d="M56.8436 31.0918H50.6289V37.3065H56.8436V31.0918Z" fill="#14171A"/>
<path d="M69.2791 31.0918H63.0645V37.3065H69.2791V31.0918Z" fill="#14171A"/>
<path d="M87.9237 31.0918H81.709V37.3065H87.9237V31.0918Z" fill="#14171A"/>
<path d="M100.348 31.0918H94.1328V37.3065H100.348V31.0918Z" fill="#14171A"/>
<path d="M112.781 31.0918H106.566V37.3065H112.781V31.0918Z" fill="#14171A"/>
<path d="M125.209 31.0918H118.994V37.3065H125.209V31.0918Z" fill="#14171A"/>
<path d="M56.8436 37.3066H50.6289V43.5213H56.8436V37.3066Z" fill="#14171A"/>
<path d="M69.2791 37.3066H63.0645V43.5213H69.2791V37.3066Z" fill="#14171A"/>
<path d="M81.7049 37.3066H75.4902V43.5213H81.7049V37.3066Z" fill="#14171A"/>
<path d="M94.1385 37.3066H87.9238V43.5213H94.1385V37.3066Z" fill="#14171A"/>
<path d="M106.566 37.3066H100.352V43.5213H106.566V37.3066Z" fill="#14171A"/>
<path d="M119 37.3066H112.785V43.5213H119V37.3066Z" fill="#14171A"/>
<path d="M131.424 37.3066H125.209V43.5213H131.424V37.3066Z" fill="#14171A"/>
<path d="M143.853 37.3066H137.639V43.5213H143.853V37.3066Z" fill="#14171A"/>
<path d="M156.285 37.3066H150.07V43.5213H156.285V37.3066Z" fill="#14171A"/>
<path d="M56.8436 43.5059H50.6289V49.7205H56.8436V43.5059Z" fill="#14171A"/>
<path d="M63.0623 43.5059H56.8477V49.7205H63.0623V43.5059Z" fill="#14171A"/>
<path d="M69.2791 43.5059H63.0645V49.7205H69.2791V43.5059Z" fill="#14171A"/>
<path d="M75.4959 43.5059H69.2812V49.7205H75.4959V43.5059Z" fill="#14171A"/>
<path d="M119 43.5059H112.785V49.7205H119V43.5059Z" fill="#14171A"/>
<path d="M137.642 43.5059H131.428V49.7205H137.642V43.5059Z" fill="#14171A"/>
<path d="M156.285 43.5059H150.07V49.7205H156.285V43.5059Z" fill="#14171A"/>
<path d="M19.5584 49.7275H13.3438V55.9422H19.5584V49.7275Z" fill="#14171A"/>
<path d="M25.7752 49.7275H19.5605V55.9422H25.7752V49.7275Z" fill="#14171A"/>
<path d="M31.994 49.7275H25.7793V55.9422H31.994V49.7275Z" fill="#14171A"/>
<path d="M44.4198 49.7275H38.2051V55.9422H44.4198V49.7275Z" fill="#14171A"/>
<path d="M56.8436 49.7275H50.6289V55.9422H56.8436V49.7275Z" fill="#14171A"/>
<path d="M75.4959 49.7275H69.2812V55.9422H75.4959V49.7275Z" fill="#14171A"/>
<path d="M81.7049 49.7275H75.4902V55.9422H81.7049V49.7275Z" fill="#14171A"/>
<path d="M87.9237 49.7275H81.709V55.9422H87.9237V49.7275Z" fill="#14171A"/>
<path d="M106.566 49.7275H100.352V55.9422H106.566V49.7275Z" fill="#14171A"/>
<path d="M112.781 49.7275H106.566V55.9422H112.781V49.7275Z" fill="#14171A"/>
<path d="M131.424 49.7275H125.209V55.9422H131.424V49.7275Z" fill="#14171A"/>
<path d="M143.853 49.7275H137.639V55.9422H143.853V49.7275Z" fill="#14171A"/>
<path d="M162.504 49.7275H156.289V55.9422H162.504V49.7275Z" fill="#14171A"/>
<path d="M168.711 49.7275H162.496V55.9422H168.711V49.7275Z" fill="#14171A"/>
<path d="M174.93 49.7275H168.715V55.9422H174.93V49.7275Z" fill="#14171A"/>
<path d="M193.572 49.7275H187.357V55.9422H193.572V49.7275Z" fill="#14171A"/>
<path d="M199.791 49.7275H193.576V55.9422H199.791V49.7275Z" fill="#14171A"/>
<path d="M205.998 49.7275H199.783V55.9422H205.998V49.7275Z" fill="#14171A"/>
<path d="M13.3514 55.9424H7.13672V62.1571H13.3514V55.9424Z" fill="#14171A"/>
<path d="M25.7752 55.9424H19.5605V62.1571H25.7752V55.9424Z" fill="#14171A"/>
<path d="M38.201 55.9424H31.9863V62.1571H38.201V55.9424Z" fill="#14171A"/>
<path d="M100.348 55.9424H94.1328V62.1571H100.348V55.9424Z" fill="#14171A"/>
<path d="M106.566 55.9424H100.352V62.1571H106.566V55.9424Z" fill="#14171A"/>
<path d="M119 55.9424H112.785V62.1571H119V55.9424Z" fill="#14171A"/>
<path d="M150.068 55.9424H143.854V62.1571H150.068V55.9424Z" fill="#14171A"/>
<path d="M162.504 55.9424H156.289V62.1571H162.504V55.9424Z" fill="#14171A"/>
<path d="M168.711 55.9424H162.496V62.1571H168.711V55.9424Z" fill="#14171A"/>
<path d="M187.353 55.9424H181.139V62.1571H187.353V55.9424Z" fill="#14171A"/>
<path d="M193.572 55.9424H187.357V62.1571H193.572V55.9424Z" fill="#14171A"/>
<path d="M199.791 55.9424H193.576V62.1571H199.791V55.9424Z" fill="#14171A"/>
<path d="M205.998 55.9424H199.783V62.1571H205.998V55.9424Z" fill="#14171A"/>
<path d="M13.3514 62.1572H7.13672V68.3719H13.3514V62.1572Z" fill="#14171A"/>
<path d="M44.4198 62.1572H38.2051V68.3719H44.4198V62.1572Z" fill="#14171A"/>
<path d="M50.6366 62.1572H44.4219V68.3719H50.6366V62.1572Z" fill="#14171A"/>
<path d="M56.8436 62.1572H50.6289V68.3719H56.8436V62.1572Z" fill="#14171A"/>
<path d="M63.0623 62.1572H56.8477V68.3719H63.0623V62.1572Z" fill="#14171A"/>
<path d="M69.2791 62.1572H63.0645V68.3719H69.2791V62.1572Z" fill="#14171A"/>
<path d="M75.4959 62.1572H69.2812V68.3719H75.4959V62.1572Z" fill="#14171A"/>
<path d="M81.7049 62.1572H75.4902V68.3719H81.7049V62.1572Z" fill="#14171A"/>
<path d="M94.1385 62.1572H87.9238V68.3719H94.1385V62.1572Z" fill="#14171A"/>
<path d="M100.348 62.1572H94.1328V68.3719H100.348V62.1572Z" fill="#14171A"/>
<path d="M125.209 62.1572H118.994V68.3719H125.209V62.1572Z" fill="#14171A"/>
<path d="M131.424 62.1572H125.209V68.3719H131.424V62.1572Z" fill="#14171A"/>
<path d="M143.853 62.1572H137.639V68.3719H143.853V62.1572Z" fill="#14171A"/>
<path d="M162.504 62.1572H156.289V68.3719H162.504V62.1572Z" fill="#14171A"/>
<path d="M168.711 62.1572H162.496V68.3719H168.711V62.1572Z" fill="#14171A"/>
<path d="M174.93 62.1572H168.715V68.3719H174.93V62.1572Z" fill="#14171A"/>
<path d="M193.572 62.1572H187.357V68.3719H193.572V62.1572Z" fill="#14171A"/>
<path d="M199.791 62.1572H193.576V68.3719H199.791V62.1572Z" fill="#14171A"/>
<path d="M13.3514 68.3779H7.13672V74.5926H13.3514V68.3779Z" fill="#14171A"/>
<path d="M25.7752 68.3779H19.5605V74.5926H25.7752V68.3779Z" fill="#14171A"/>
<path d="M38.201 68.3779H31.9863V74.5926H38.201V68.3779Z" fill="#14171A"/>
<path d="M56.8436 68.3779H50.6289V74.5926H56.8436V68.3779Z" fill="#14171A"/>
<path d="M63.0623 68.3779H56.8477V74.5926H63.0623V68.3779Z" fill="#14171A"/>
<path d="M81.7049 68.3779H75.4902V74.5926H81.7049V68.3779Z" fill="#14171A"/>
<path d="M100.348 68.3779H94.1328V74.5926H100.348V68.3779Z" fill="#14171A"/>
<path d="M106.566 68.3779H100.352V74.5926H106.566V68.3779Z" fill="#14171A"/>
<path d="M112.781 68.3779H106.566V74.5926H112.781V68.3779Z" fill="#14171A"/>
<path d="M119 68.3779H112.785V74.5926H119V68.3779Z" fill="#14171A"/>
<path d="M150.068 68.3779H143.854V74.5926H150.068V68.3779Z" fill="#14171A"/>
<path d="M168.711 68.3779H162.496V74.5926H168.711V68.3779Z" fill="#14171A"/>
<path d="M193.572 68.3779H187.357V74.5926H193.572V68.3779Z" fill="#14171A"/>
<path d="M199.791 68.3779H193.576V74.5926H199.791V68.3779Z" fill="#14171A"/>
<path d="M7.13266 74.5928H0.917969V80.8075H7.13266V74.5928Z" fill="#14171A"/>
<path d="M13.3514 74.5928H7.13672V80.8075H13.3514V74.5928Z" fill="#14171A"/>
<path d="M19.5584 74.5928H13.3438V80.8075H19.5584V74.5928Z" fill="#14171A"/>
<path d="M25.7752 74.5928H19.5605V80.8075H25.7752V74.5928Z" fill="#14171A"/>
<path d="M31.994 74.5928H25.7793V80.8075H31.994V74.5928Z" fill="#14171A"/>
<path d="M44.4198 74.5928H38.2051V80.8075H44.4198V74.5928Z" fill="#14171A"/>
<path d="M56.8436 74.5928H50.6289V80.8075H56.8436V74.5928Z" fill="#14171A"/>
<path d="M69.2791 74.5928H63.0645V80.8075H69.2791V74.5928Z" fill="#14171A"/>
<path d="M75.4959 74.5928H69.2812V80.8075H75.4959V74.5928Z" fill="#14171A"/>
<path d="M81.7049 74.5928H75.4902V80.8075H81.7049V74.5928Z" fill="#14171A"/>
<path d="M87.9237 74.5928H81.709V80.8075H87.9237V74.5928Z" fill="#14171A"/>
<path d="M106.566 74.5928H100.352V80.8075H106.566V74.5928Z" fill="#14171A"/>
<path d="M119 74.5928H112.785V80.8075H119V74.5928Z" fill="#14171A"/>
<path d="M137.642 74.5928H131.428V80.8075H137.642V74.5928Z" fill="#14171A"/>
<path d="M143.853 74.5928H137.639V80.8075H143.853V74.5928Z" fill="#14171A"/>
<path d="M150.068 74.5928H143.854V80.8075H150.068V74.5928Z" fill="#14171A"/>
<path d="M156.285 74.5928H150.07V80.8075H156.285V74.5928Z" fill="#14171A"/>
<path d="M162.504 74.5928H156.289V80.8075H162.504V74.5928Z" fill="#14171A"/>
<path d="M181.146 74.5928H174.932V80.8075H181.146V74.5928Z" fill="#14171A"/>
<path d="M13.3514 80.792H7.13672V87.0067H13.3514V80.792Z" fill="#14171A"/>
<path d="M31.994 80.792H25.7793V87.0067H31.994V80.792Z" fill="#14171A"/>
<path d="M38.201 80.792H31.9863V87.0067H38.201V80.792Z" fill="#14171A"/>
<path d="M50.6366 80.792H44.4219V87.0067H50.6366V80.792Z" fill="#14171A"/>
<path d="M81.7049 80.792H75.4902V87.0067H81.7049V80.792Z" fill="#14171A"/>
<path d="M87.9237 80.792H81.709V87.0067H87.9237V80.792Z" fill="#14171A"/>
<path d="M100.348 80.792H94.1328V87.0067H100.348V80.792Z" fill="#14171A"/>
<path d="M112.781 80.792H106.566V87.0067H112.781V80.792Z" fill="#14171A"/>
<path d="M125.209 80.792H118.994V87.0067H125.209V80.792Z" fill="#14171A"/>
<path d="M150.068 80.792H143.854V87.0067H150.068V80.792Z" fill="#14171A"/>
<path d="M168.711 80.792H162.496V87.0067H168.711V80.792Z" fill="#14171A"/>
<path d="M187.353 80.792H181.139V87.0067H187.353V80.792Z" fill="#14171A"/>
<path d="M193.572 80.792H187.357V87.0067H193.572V80.792Z" fill="#14171A"/>
<path d="M205.998 80.792H199.783V87.0067H205.998V80.792Z" fill="#14171A"/>
<path d="M13.3514 87.0137H7.13672V93.2284H13.3514V87.0137Z" fill="#14171A"/>
<path d="M19.5584 87.0137H13.3438V93.2284H19.5584V87.0137Z" fill="#14171A"/>
<path d="M38.201 87.0137H31.9863V93.2284H38.201V87.0137Z" fill="#14171A"/>
<path d="M44.4198 87.0137H38.2051V93.2284H44.4198V87.0137Z" fill="#14171A"/>
<path d="M50.6366 87.0137H44.4219V93.2284H50.6366V87.0137Z" fill="#14171A"/>
<path d="M63.0623 87.0137H56.8477V93.2284H63.0623V87.0137Z" fill="#14171A"/>
<path d="M81.7049 87.0137H75.4902V93.2284H81.7049V87.0137Z" fill="#14171A"/>
<path d="M94.1385 87.0137H87.9238V93.2284H94.1385V87.0137Z" fill="#14171A"/>
<path d="M143.853 87.0137H137.639V93.2284H143.853V87.0137Z" fill="#14171A"/>
<path d="M156.285 87.0137H150.07V93.2284H156.285V87.0137Z" fill="#14171A"/>
<path d="M162.504 87.0137H156.289V93.2284H162.504V87.0137Z" fill="#14171A"/>
<path d="M168.711 87.0137H162.496V93.2284H168.711V87.0137Z" fill="#14171A"/>
<path d="M181.146 87.0137H174.932V93.2284H181.146V87.0137Z" fill="#14171A"/>
<path d="M199.791 87.0137H193.576V93.2284H199.791V87.0137Z" fill="#14171A"/>
<path d="M7.13266 93.2285H0.917969V99.4432H7.13266V93.2285Z" fill="#14171A"/>
<path d="M13.3514 93.2285H7.13672V99.4432H13.3514V93.2285Z" fill="#14171A"/>
<path d="M25.7752 93.2285H19.5605V99.4432H25.7752V93.2285Z" fill="#14171A"/>
<path d="M31.994 93.2285H25.7793V99.4432H31.994V93.2285Z" fill="#14171A"/>
<path d="M56.8436 93.2285H50.6289V99.4432H56.8436V93.2285Z" fill="#14171A"/>
<path d="M69.2791 93.2285H63.0645V99.4432H69.2791V93.2285Z" fill="#14171A"/>
<path d="M94.1385 93.2285H87.9238V99.4432H94.1385V93.2285Z" fill="#14171A"/>
<path d="M100.348 93.2285H94.1328V99.4432H100.348V93.2285Z" fill="#14171A"/>
<path d="M125.209 93.2285H118.994V99.4432H125.209V93.2285Z" fill="#14171A"/>
<path d="M131.424 93.2285H125.209V99.4432H131.424V93.2285Z" fill="#14171A"/>
<path d="M137.642 93.2285H131.428V99.4432H137.642V93.2285Z" fill="#14171A"/>
<path d="M143.853 93.2285H137.639V99.4432H143.853V93.2285Z" fill="#14171A"/>
<path d="M162.504 93.2285H156.289V99.4432H162.504V93.2285Z" fill="#14171A"/>
<path d="M168.711 93.2285H162.496V99.4432H168.711V93.2285Z" fill="#14171A"/>
<path d="M174.93 93.2285H168.715V99.4432H174.93V93.2285Z" fill="#14171A"/>
<path d="M187.353 93.2285H181.139V99.4432H187.353V93.2285Z" fill="#14171A"/>
<path d="M193.572 93.2285H187.357V99.4432H193.572V93.2285Z" fill="#14171A"/>
<path d="M205.998 93.2285H199.783V99.4432H205.998V93.2285Z" fill="#14171A"/>
<path d="M7.13266 99.4434H0.917969V105.658H7.13266V99.4434Z" fill="#14171A"/>
<path d="M19.5584 99.4434H13.3438V105.658H19.5584V99.4434Z" fill="#14171A"/>
<path d="M25.7752 99.4434H19.5605V105.658H25.7752V99.4434Z" fill="#14171A"/>
<path d="M44.4198 99.4434H38.2051V105.658H44.4198V99.4434Z" fill="#14171A"/>
<path d="M69.2791 99.4434H63.0645V105.658H69.2791V99.4434Z" fill="#14171A"/>
<path d="M75.4959 99.4434H69.2812V105.658H75.4959V99.4434Z" fill="#14171A"/>
<path d="M81.7049 99.4434H75.4902V105.658H81.7049V99.4434Z" fill="#14171A"/>
<path d="M87.9237 99.4434H81.709V105.658H87.9237V99.4434Z" fill="#14171A"/>
<path d="M100.348 99.4434H94.1328V105.658H100.348V99.4434Z" fill="#14171A"/>
<path d="M106.566 99.4434H100.352V105.658H106.566V99.4434Z" fill="#14171A"/>
<path d="M119 99.4434H112.785V105.658H119V99.4434Z" fill="#14171A"/>
<path d="M131.424 99.4434H125.209V105.658H131.424V99.4434Z" fill="#14171A"/>
<path d="M162.504 99.4434H156.289V105.658H162.504V99.4434Z" fill="#14171A"/>
<path d="M174.93 99.4434H168.715V105.658H174.93V99.4434Z" fill="#14171A"/>
<path d="M181.146 99.4434H174.932V105.658H181.146V99.4434Z" fill="#14171A"/>
<path d="M187.353 99.4434H181.139V105.658H187.353V99.4434Z" fill="#14171A"/>
<path d="M199.791 99.4434H193.576V105.658H199.791V99.4434Z" fill="#14171A"/>
<path d="M205.998 99.4434H199.783V105.658H205.998V99.4434Z" fill="#14171A"/>
<path d="M7.13266 105.664H0.917969V111.879H7.13266V105.664Z" fill="#14171A"/>
<path d="M13.3514 105.664H7.13672V111.879H13.3514V105.664Z" fill="#14171A"/>
<path d="M25.7752 105.664H19.5605V111.879H25.7752V105.664Z" fill="#14171A"/>
<path d="M31.994 105.664H25.7793V111.879H31.994V105.664Z" fill="#14171A"/>
<path d="M50.6366 105.664H44.4219V111.879H50.6366V105.664Z" fill="#14171A"/>
<path d="M63.0623 105.664H56.8477V111.879H63.0623V105.664Z" fill="#14171A"/>
<path d="M69.2791 105.664H63.0645V111.879H69.2791V105.664Z" fill="#14171A"/>
<path d="M75.4959 105.664H69.2812V111.879H75.4959V105.664Z" fill="#14171A"/>
<path d="M81.7049 105.664H75.4902V111.879H81.7049V105.664Z" fill="#14171A"/>
<path d="M87.9237 105.664H81.709V111.879H87.9237V105.664Z" fill="#14171A"/>
<path d="M100.348 105.664H94.1328V111.879H100.348V105.664Z" fill="#14171A"/>
<path d="M112.781 105.664H106.566V111.879H112.781V105.664Z" fill="#14171A"/>
<path d="M119 105.664H112.785V111.879H119V105.664Z" fill="#14171A"/>
<path d="M131.424 105.664H125.209V111.879H131.424V105.664Z" fill="#14171A"/>
<path d="M137.642 105.664H131.428V111.879H137.642V105.664Z" fill="#14171A"/>
<path d="M150.068 105.664H143.854V111.879H150.068V105.664Z" fill="#14171A"/>
<path d="M156.285 105.664H150.07V111.879H156.285V105.664Z" fill="#14171A"/>
<path d="M168.711 105.664H162.496V111.879H168.711V105.664Z" fill="#14171A"/>
<path d="M199.791 105.664H193.576V111.879H199.791V105.664Z" fill="#14171A"/>
<path d="M205.998 105.664H199.783V111.879H205.998V105.664Z" fill="#14171A"/>
<path d="M13.3514 111.88H7.13672V118.095H13.3514V111.88Z" fill="#14171A"/>
<path d="M19.5584 111.88H13.3438V118.095H19.5584V111.88Z" fill="#14171A"/>
<path d="M25.7752 111.88H19.5605V118.095H25.7752V111.88Z" fill="#14171A"/>
<path d="M44.4198 111.88H38.2051V118.095H44.4198V111.88Z" fill="#14171A"/>
<path d="M56.8436 111.88H50.6289V118.095H56.8436V111.88Z" fill="#14171A"/>
<path d="M69.2791 111.88H63.0645V118.095H69.2791V111.88Z" fill="#14171A"/>
<path d="M75.4959 111.88H69.2812V118.095H75.4959V111.88Z" fill="#14171A"/>
<path d="M81.7049 111.88H75.4902V118.095H81.7049V111.88Z" fill="#14171A"/>
<path d="M87.9237 111.88H81.709V118.095H87.9237V111.88Z" fill="#14171A"/>
<path d="M137.642 111.88H131.428V118.095H137.642V111.88Z" fill="#14171A"/>
<path d="M143.853 111.88H137.639V118.095H143.853V111.88Z" fill="#14171A"/>
<path d="M181.146 111.88H174.932V118.095H181.146V111.88Z" fill="#14171A"/>
<path d="M193.572 111.88H187.357V118.095H193.572V111.88Z" fill="#14171A"/>
<path d="M13.3514 118.095H7.13672V124.309H13.3514V118.095Z" fill="#14171A"/>
<path d="M25.7752 118.095H19.5605V124.309H25.7752V118.095Z" fill="#14171A"/>
<path d="M38.201 118.095H31.9863V124.309H38.201V118.095Z" fill="#14171A"/>
<path d="M56.8436 118.095H50.6289V124.309H56.8436V118.095Z" fill="#14171A"/>
<path d="M69.2791 118.095H63.0645V124.309H69.2791V118.095Z" fill="#14171A"/>
<path d="M75.4959 118.095H69.2812V124.309H75.4959V118.095Z" fill="#14171A"/>
<path d="M81.7049 118.095H75.4902V124.309H81.7049V118.095Z" fill="#14171A"/>
<path d="M87.9237 118.095H81.709V124.309H87.9237V118.095Z" fill="#14171A"/>
<path d="M94.1385 118.095H87.9238V124.309H94.1385V118.095Z" fill="#14171A"/>
<path d="M100.348 118.095H94.1328V124.309H100.348V118.095Z" fill="#14171A"/>
<path d="M112.781 118.095H106.566V124.309H112.781V118.095Z" fill="#14171A"/>
<path d="M119 118.095H112.785V124.309H119V118.095Z" fill="#14171A"/>
<path d="M125.209 118.095H118.994V124.309H125.209V118.095Z" fill="#14171A"/>
<path d="M137.642 118.095H131.428V124.309H137.642V118.095Z" fill="#14171A"/>
<path d="M143.853 118.095H137.639V124.309H143.853V118.095Z" fill="#14171A"/>
<path d="M150.068 118.095H143.854V124.309H150.068V118.095Z" fill="#14171A"/>
<path d="M156.285 118.095H150.07V124.309H156.285V118.095Z" fill="#14171A"/>
<path d="M174.93 118.095H168.715V124.309H174.93V118.095Z" fill="#14171A"/>
<path d="M187.353 118.095H181.139V124.309H187.353V118.095Z" fill="#14171A"/>
<path d="M193.572 118.095H187.357V124.309H193.572V118.095Z" fill="#14171A"/>
<path d="M7.13266 124.315H0.917969V130.53H7.13266V124.315Z" fill="#14171A"/>
<path d="M19.5584 124.315H13.3438V130.53H19.5584V124.315Z" fill="#14171A"/>
<path d="M25.7752 124.315H19.5605V130.53H25.7752V124.315Z" fill="#14171A"/>
<path d="M38.201 124.315H31.9863V130.53H38.201V124.315Z" fill="#14171A"/>
<path d="M44.4198 124.315H38.2051V130.53H44.4198V124.315Z" fill="#14171A"/>
<path d="M56.8436 124.315H50.6289V130.53H56.8436V124.315Z" fill="#14171A"/>
<path d="M75.4959 124.315H69.2812V130.53H75.4959V124.315Z" fill="#14171A"/>
<path d="M94.1385 124.315H87.9238V130.53H94.1385V124.315Z" fill="#14171A"/>
<path d="M106.566 124.315H100.352V130.53H106.566V124.315Z" fill="#14171A"/>
<path d="M112.781 124.315H106.566V130.53H112.781V124.315Z" fill="#14171A"/>
<path d="M143.853 124.315H137.639V130.53H143.853V124.315Z" fill="#14171A"/>
<path d="M156.285 124.315H150.07V130.53H156.285V124.315Z" fill="#14171A"/>
<path d="M174.93 124.315H168.715V130.53H174.93V124.315Z" fill="#14171A"/>
<path d="M181.146 124.315H174.932V130.53H181.146V124.315Z" fill="#14171A"/>
<path d="M187.353 124.315H181.139V130.53H187.353V124.315Z" fill="#14171A"/>
<path d="M205.998 124.315H199.783V130.53H205.998V124.315Z" fill="#14171A"/>
<path d="M7.13266 130.515H0.917969V136.729H7.13266V130.515Z" fill="#14171A"/>
<path d="M13.3514 130.515H7.13672V136.729H13.3514V130.515Z" fill="#14171A"/>
<path d="M19.5584 130.515H13.3438V136.729H19.5584V130.515Z" fill="#14171A"/>
<path d="M25.7752 130.515H19.5605V136.729H25.7752V130.515Z" fill="#14171A"/>
<path d="M31.994 130.515H25.7793V136.729H31.994V130.515Z" fill="#14171A"/>
<path d="M50.6366 130.515H44.4219V136.729H50.6366V130.515Z" fill="#14171A"/>
<path d="M69.2791 130.515H63.0645V136.729H69.2791V130.515Z" fill="#14171A"/>
<path d="M75.4959 130.515H69.2812V136.729H75.4959V130.515Z" fill="#14171A"/>
<path d="M87.9237 130.515H81.709V136.729H87.9237V130.515Z" fill="#14171A"/>
<path d="M112.781 130.515H106.566V136.729H112.781V130.515Z" fill="#14171A"/>
<path d="M119 130.515H112.785V136.729H119V130.515Z" fill="#14171A"/>
<path d="M131.424 130.515H125.209V136.729H131.424V130.515Z" fill="#14171A"/>
<path d="M143.853 130.515H137.639V136.729H143.853V130.515Z" fill="#14171A"/>
<path d="M174.93 130.515H168.715V136.729H174.93V130.515Z" fill="#14171A"/>
<path d="M193.572 130.515H187.357V136.729H193.572V130.515Z" fill="#14171A"/>
<path d="M199.791 130.515H193.576V136.729H199.791V130.515Z" fill="#14171A"/>
<path d="M205.998 130.515H199.783V136.729H205.998V130.515Z" fill="#14171A"/>
<path d="M7.13266 136.729H0.917969V142.944H7.13266V136.729Z" fill="#14171A"/>
<path d="M25.7752 136.729H19.5605V142.944H25.7752V136.729Z" fill="#14171A"/>
<path d="M31.994 136.729H25.7793V142.944H31.994V136.729Z" fill="#14171A"/>
<path d="M38.201 136.729H31.9863V142.944H38.201V136.729Z" fill="#14171A"/>
<path d="M44.4198 136.729H38.2051V142.944H44.4198V136.729Z" fill="#14171A"/>
<path d="M56.8436 136.729H50.6289V142.944H56.8436V136.729Z" fill="#14171A"/>
<path d="M63.0623 136.729H56.8477V142.944H63.0623V136.729Z" fill="#14171A"/>
<path d="M75.4959 136.729H69.2812V142.944H75.4959V136.729Z" fill="#14171A"/>
<path d="M81.7049 136.729H75.4902V142.944H81.7049V136.729Z" fill="#14171A"/>
<path d="M87.9237 136.729H81.709V142.944H87.9237V136.729Z" fill="#14171A"/>
<path d="M94.1385 136.729H87.9238V142.944H94.1385V136.729Z" fill="#14171A"/>
<path d="M106.566 136.729H100.352V142.944H106.566V136.729Z" fill="#14171A"/>
<path d="M112.781 136.729H106.566V142.944H112.781V136.729Z" fill="#14171A"/>
<path d="M131.424 136.729H125.209V142.944H131.424V136.729Z" fill="#14171A"/>
<path d="M143.853 136.729H137.639V142.944H143.853V136.729Z" fill="#14171A"/>
<path d="M150.068 136.729H143.854V142.944H150.068V136.729Z" fill="#14171A"/>
<path d="M156.285 136.729H150.07V142.944H156.285V136.729Z" fill="#14171A"/>
<path d="M174.93 136.729H168.715V142.944H174.93V136.729Z" fill="#14171A"/>
<path d="M193.572 136.729H187.357V142.944H193.572V136.729Z" fill="#14171A"/>
<path d="M199.791 136.729H193.576V142.944H199.791V136.729Z" fill="#14171A"/>
<path d="M7.13266 142.951H0.917969V149.166H7.13266V142.951Z" fill="#14171A"/>
<path d="M25.7752 142.951H19.5605V149.166H25.7752V142.951Z" fill="#14171A"/>
<path d="M50.6366 142.951H44.4219V149.166H50.6366V142.951Z" fill="#14171A"/>
<path d="M56.8436 142.951H50.6289V149.166H56.8436V142.951Z" fill="#14171A"/>
<path d="M81.7049 142.951H75.4902V149.166H81.7049V142.951Z" fill="#14171A"/>
<path d="M119 142.951H112.785V149.166H119V142.951Z" fill="#14171A"/>
<path d="M125.209 142.951H118.994V149.166H125.209V142.951Z" fill="#14171A"/>
<path d="M131.424 142.951H125.209V149.166H131.424V142.951Z" fill="#14171A"/>
<path d="M137.642 142.951H131.428V149.166H137.642V142.951Z" fill="#14171A"/>
<path d="M150.068 142.951H143.854V149.166H150.068V142.951Z" fill="#14171A"/>
<path d="M174.93 142.951H168.715V149.166H174.93V142.951Z" fill="#14171A"/>
<path d="M187.353 142.951H181.139V149.166H187.353V142.951Z" fill="#14171A"/>
<path d="M193.572 142.951H187.357V149.166H193.572V142.951Z" fill="#14171A"/>
<path d="M199.791 142.951H193.576V149.166H199.791V142.951Z" fill="#14171A"/>
<path d="M205.998 142.951H199.783V149.166H205.998V142.951Z" fill="#14171A"/>
<path d="M7.13266 149.166H0.917969V155.381H7.13266V149.166Z" fill="#14171A"/>
<path d="M19.5584 149.166H13.3438V155.381H19.5584V149.166Z" fill="#14171A"/>
<path d="M38.201 149.166H31.9863V155.381H38.201V149.166Z" fill="#14171A"/>
<path d="M44.4198 149.166H38.2051V155.381H44.4198V149.166Z" fill="#14171A"/>
<path d="M56.8436 149.166H50.6289V155.381H56.8436V149.166Z" fill="#14171A"/>
<path d="M75.4959 149.166H69.2812V155.381H75.4959V149.166Z" fill="#14171A"/>
<path d="M94.1385 149.166H87.9238V155.381H94.1385V149.166Z" fill="#14171A"/>
<path d="M112.781 149.166H106.566V155.381H112.781V149.166Z" fill="#14171A"/>
<path d="M131.424 149.166H125.209V155.381H131.424V149.166Z" fill="#14171A"/>
<path d="M143.853 149.166H137.639V155.381H143.853V149.166Z" fill="#14171A"/>
<path d="M150.068 149.166H143.854V155.381H150.068V149.166Z" fill="#14171A"/>
<path d="M156.285 149.166H150.07V155.381H156.285V149.166Z" fill="#14171A"/>
<path d="M162.504 149.166H156.289V155.381H162.504V149.166Z" fill="#14171A"/>
<path d="M168.711 149.166H162.496V155.381H168.711V149.166Z" fill="#14171A"/>
<path d="M174.93 149.166H168.715V155.381H174.93V149.166Z" fill="#14171A"/>
<path d="M181.146 149.166H174.932V155.381H181.146V149.166Z" fill="#14171A"/>
<path d="M187.353 149.166H181.139V155.381H187.353V149.166Z" fill="#14171A"/>
<path d="M56.8436 155.381H50.6289V161.596H56.8436V155.381Z" fill="#14171A"/>
<path d="M63.0623 155.381H56.8477V161.596H63.0623V155.381Z" fill="#14171A"/>
<path d="M69.2791 155.381H63.0645V161.596H69.2791V155.381Z" fill="#14171A"/>
<path d="M75.4959 155.381H69.2812V161.596H75.4959V155.381Z" fill="#14171A"/>
<path d="M87.9237 155.381H81.709V161.596H87.9237V155.381Z" fill="#14171A"/>
<path d="M94.1385 155.381H87.9238V161.596H94.1385V155.381Z" fill="#14171A"/>
<path d="M100.348 155.381H94.1328V161.596H100.348V155.381Z" fill="#14171A"/>
<path d="M106.566 155.381H100.352V161.596H106.566V155.381Z" fill="#14171A"/>
<path d="M112.781 155.381H106.566V161.596H112.781V155.381Z" fill="#14171A"/>
<path d="M137.642 155.381H131.428V161.596H137.642V155.381Z" fill="#14171A"/>
<path d="M156.285 155.381H150.07V161.596H156.285V155.381Z" fill="#14171A"/>
<path d="M181.146 155.381H174.932V161.596H181.146V155.381Z" fill="#14171A"/>
<path d="M187.353 155.381H181.139V161.596H187.353V155.381Z" fill="#14171A"/>
<path d="M205.998 155.381H199.783V161.596H205.998V155.381Z" fill="#14171A"/>
<path d="M63.0623 161.602H56.8477V167.816H63.0623V161.602Z" fill="#14171A"/>
<path d="M69.2791 161.602H63.0645V167.816H69.2791V161.602Z" fill="#14171A"/>
<path d="M87.9237 161.602H81.709V167.816H87.9237V161.602Z" fill="#14171A"/>
<path d="M100.348 161.602H94.1328V167.816H100.348V161.602Z" fill="#14171A"/>
<path d="M112.781 161.602H106.566V167.816H112.781V161.602Z" fill="#14171A"/>
<path d="M125.209 161.602H118.994V167.816H125.209V161.602Z" fill="#14171A"/>
<path d="M137.642 161.602H131.428V167.816H137.642V161.602Z" fill="#14171A"/>
<path d="M150.068 161.602H143.854V167.816H150.068V161.602Z" fill="#14171A"/>
<path d="M156.285 161.602H150.07V167.816H156.285V161.602Z" fill="#14171A"/>
<path d="M168.711 161.602H162.496V167.816H168.711V161.602Z" fill="#14171A"/>
<path d="M181.146 161.602H174.932V167.816H181.146V161.602Z" fill="#14171A"/>
<path d="M199.791 161.602H193.576V167.816H199.791V161.602Z" fill="#14171A"/>
<path d="M87.9237 167.801H81.709V174.015H87.9237V167.801Z" fill="#14171A"/>
<path d="M106.566 167.801H100.352V174.015H106.566V167.801Z" fill="#14171A"/>
<path d="M112.781 167.801H106.566V174.015H112.781V167.801Z" fill="#14171A"/>
<path d="M119 167.801H112.785V174.015H119V167.801Z" fill="#14171A"/>
<path d="M137.642 167.801H131.428V174.015H137.642V167.801Z" fill="#14171A"/>
<path d="M143.853 167.801H137.639V174.015H143.853V167.801Z" fill="#14171A"/>
<path d="M156.285 167.801H150.07V174.015H156.285V167.801Z" fill="#14171A"/>
<path d="M181.146 167.801H174.932V174.015H181.146V167.801Z" fill="#14171A"/>
<path d="M187.353 167.801H181.139V174.015H187.353V167.801Z" fill="#14171A"/>
<path d="M193.572 167.801H187.357V174.015H193.572V167.801Z" fill="#14171A"/>
<path d="M199.791 167.801H193.576V174.015H199.791V167.801Z" fill="#14171A"/>
<path d="M205.998 167.801H199.783V174.015H205.998V167.801Z" fill="#14171A"/>
<path d="M56.8436 174.016H50.6289V180.23H56.8436V174.016Z" fill="#14171A"/>
<path d="M63.0623 174.016H56.8477V180.23H63.0623V174.016Z" fill="#14171A"/>
<path d="M69.2791 174.016H63.0645V180.23H69.2791V174.016Z" fill="#14171A"/>
<path d="M75.4959 174.016H69.2812V180.23H75.4959V174.016Z" fill="#14171A"/>
<path d="M87.9237 174.016H81.709V180.23H87.9237V174.016Z" fill="#14171A"/>
<path d="M94.1385 174.016H87.9238V180.23H94.1385V174.016Z" fill="#14171A"/>
<path d="M100.348 174.016H94.1328V180.23H100.348V174.016Z" fill="#14171A"/>
<path d="M119 174.016H112.785V180.23H119V174.016Z" fill="#14171A"/>
<path d="M125.209 174.016H118.994V180.23H125.209V174.016Z" fill="#14171A"/>
<path d="M137.642 174.016H131.428V180.23H137.642V174.016Z" fill="#14171A"/>
<path d="M156.285 174.016H150.07V180.23H156.285V174.016Z" fill="#14171A"/>
<path d="M162.504 174.016H156.289V180.23H162.504V174.016Z" fill="#14171A"/>
<path d="M168.711 174.016H162.496V180.23H168.711V174.016Z" fill="#14171A"/>
<path d="M174.93 174.016H168.715V180.23H174.93V174.016Z" fill="#14171A"/>
<path d="M181.146 174.016H174.932V180.23H181.146V174.016Z" fill="#14171A"/>
<path d="M199.791 174.016H193.576V180.23H199.791V174.016Z" fill="#14171A"/>
<path d="M205.998 174.016H199.783V180.23H205.998V174.016Z" fill="#14171A"/>
<path d="M56.8436 180.237H50.6289V186.452H56.8436V180.237Z" fill="#14171A"/>
<path d="M63.0623 180.237H56.8477V186.452H63.0623V180.237Z" fill="#14171A"/>
<path d="M69.2791 180.237H63.0645V186.452H69.2791V180.237Z" fill="#14171A"/>
<path d="M87.9237 180.237H81.709V186.452H87.9237V180.237Z" fill="#14171A"/>
<path d="M100.348 180.237H94.1328V186.452H100.348V180.237Z" fill="#14171A"/>
<path d="M112.781 180.237H106.566V186.452H112.781V180.237Z" fill="#14171A"/>
<path d="M131.424 180.237H125.209V186.452H131.424V180.237Z" fill="#14171A"/>
<path d="M143.853 180.237H137.639V186.452H143.853V180.237Z" fill="#14171A"/>
<path d="M150.068 180.237H143.854V186.452H150.068V180.237Z" fill="#14171A"/>
<path d="M156.285 180.237H150.07V186.452H156.285V180.237Z" fill="#14171A"/>
<path d="M162.504 180.237H156.289V186.452H162.504V180.237Z" fill="#14171A"/>
<path d="M181.146 180.237H174.932V186.452H181.146V180.237Z" fill="#14171A"/>
<path d="M193.572 180.237H187.357V186.452H193.572V180.237Z" fill="#14171A"/>
<path d="M199.791 180.237H193.576V186.452H199.791V180.237Z" fill="#14171A"/>
<path d="M56.8436 186.452H50.6289V192.667H56.8436V186.452Z" fill="#14171A"/>
<path d="M69.2791 186.452H63.0645V192.667H69.2791V186.452Z" fill="#14171A"/>
<path d="M75.4959 186.452H69.2812V192.667H75.4959V186.452Z" fill="#14171A"/>
<path d="M81.7049 186.452H75.4902V192.667H81.7049V186.452Z" fill="#14171A"/>
<path d="M87.9237 186.452H81.709V192.667H87.9237V186.452Z" fill="#14171A"/>
<path d="M94.1385 186.452H87.9238V192.667H94.1385V186.452Z" fill="#14171A"/>
<path d="M112.781 186.452H106.566V192.667H112.781V186.452Z" fill="#14171A"/>
<path d="M131.424 186.452H125.209V192.667H131.424V186.452Z" fill="#14171A"/>
<path d="M137.642 186.452H131.428V192.667H137.642V186.452Z" fill="#14171A"/>
<path d="M150.068 186.452H143.854V192.667H150.068V186.452Z" fill="#14171A"/>
<path d="M162.504 186.452H156.289V192.667H162.504V186.452Z" fill="#14171A"/>
<path d="M168.711 186.452H162.496V192.667H168.711V186.452Z" fill="#14171A"/>
<path d="M187.353 186.452H181.139V192.667H187.353V186.452Z" fill="#14171A"/>
<path d="M69.2791 192.667H63.0645V198.882H69.2791V192.667Z" fill="#14171A"/>
<path d="M81.7049 192.667H75.4902V198.882H81.7049V192.667Z" fill="#14171A"/>
<path d="M112.781 192.667H106.566V198.882H112.781V192.667Z" fill="#14171A"/>
<path d="M137.642 192.667H131.428V198.882H137.642V192.667Z" fill="#14171A"/>
<path d="M174.93 192.667H168.715V198.882H174.93V192.667Z" fill="#14171A"/>
<path d="M187.353 192.667H181.139V198.882H187.353V192.667Z" fill="#14171A"/>
<path d="M193.572 192.667H187.357V198.882H193.572V192.667Z" fill="#14171A"/>
<path d="M81.7049 198.888H75.4902V205.102H81.7049V198.888Z" fill="#14171A"/>
<path d="M87.9237 198.888H81.709V205.102H87.9237V198.888Z" fill="#14171A"/>
<path d="M100.348 198.888H94.1328V205.102H100.348V198.888Z" fill="#14171A"/>
<path d="M106.566 198.888H100.352V205.102H106.566V198.888Z" fill="#14171A"/>
<path d="M112.781 198.888H106.566V205.102H112.781V198.888Z" fill="#14171A"/>
<path d="M125.209 198.888H118.994V205.102H125.209V198.888Z" fill="#14171A"/>
<path d="M137.642 198.888H131.428V205.102H137.642V198.888Z" fill="#14171A"/>
<path d="M150.068 198.888H143.854V205.102H150.068V198.888Z" fill="#14171A"/>
<path d="M156.285 198.888H150.07V205.102H156.285V198.888Z" fill="#14171A"/>
<path d="M162.504 198.888H156.289V205.102H162.504V198.888Z" fill="#14171A"/>
<path d="M199.791 198.888H193.576V205.102H199.791V198.888Z" fill="#14171A"/>
<path d="M44.4208 0.000102997V14.8524V28.6506C44.4208 32.3445 44.4208 43.5029 44.4208 43.5029C44.4208 43.5029 34.1802 43.5029 29.7386 43.5029H0.917969L0.926669 14.8524C0.926669 6.66474 7.513 0.000102997 15.6132 0.000102997H29.7386H44.4208ZM37.8954 6.52553H15.6132C11.1133 6.52553 7.45209 10.2607 7.45209 14.8541L7.44513 36.9775H37.8954V6.52553Z" fill="#14171A"/>
<path d="M162.495 0.000102997V14.8524V28.6506C162.495 32.3445 162.495 43.5029 162.495 43.5029C162.495 43.5029 172.736 43.5029 177.177 43.5029H205.998L205.989 14.8524C205.989 6.66474 199.403 0.000102997 191.303 0.000102997H177.177H162.495ZM169.021 6.52553H191.303C195.803 6.52553 199.464 10.2607 199.464 14.8541L199.471 36.9775H169.021V6.52553Z" fill="#14171A"/>
<path d="M44.4208 205.107V190.255V176.457C44.4208 172.763 44.4208 161.604 44.4208 161.604C44.4208 161.604 34.1802 161.604 29.7386 161.604H0.917969L0.926669 190.255C0.926669 198.443 7.513 205.107 15.6132 205.107H29.7386H44.4208ZM37.8954 198.582H15.6132C11.1133 198.582 7.45209 194.847 7.45209 190.253L7.44513 168.13H37.8954V198.582Z" fill="#14171A"/>
<path d="M31.9878 12.4414H13.3438V31.0855H31.9878V12.4414Z" fill="#14171A"/>
<path d="M193.576 12.4414H174.932V31.0855H193.576V12.4414Z" fill="#14171A"/>
<path d="M31.9878 174.016H13.3438V192.66H31.9878V174.016Z" fill="#14171A"/>
<g clip-path="url(#clip1_368_13429)">
<path d="M137.643 68.3779H69.2812V136.74H137.643V68.3779Z" fill="white"/>
<path d="M124.975 74.5908H81.9498C78.3855 74.5908 75.4961 77.4802 75.4961 81.0445V124.069C75.4961 127.634 78.3855 130.523 81.9498 130.523H124.975C128.539 130.523 131.428 127.634 131.428 124.069V81.0445C131.428 77.4802 128.539 74.5908 124.975 74.5908Z" fill="#14171A"/>
<path d="M121.894 91.6572C121.841 91.5756 121.762 91.5204 121.67 91.5012L120.794 91.314C120.624 91.314 120.489 91.4292 120.467 91.5876L118.205 103.465C118.162 103.616 117.919 103.588 117.931 103.422V103.417L118.626 91.3404C118.626 91.1676 118.499 91.0284 118.335 91.014C118.261 91.0044 118.176 91.002 118.083 91.002C117.919 91.002 117.787 91.1268 117.772 91.29L116.569 105.244C116.559 105.419 116.321 105.409 116.304 105.251L115.544 91.47C115.532 91.3236 115.414 91.2132 115.222 91.2132C115.217 91.2132 115.036 91.242 115.036 91.242C114.902 91.2564 114.798 91.3764 114.798 91.5204L115.024 106.261C115.019 106.424 114.786 106.444 114.757 106.276L112.31 92.3772C112.288 92.2212 112.159 92.1084 112.002 92.1084C111.964 92.1084 111.925 92.1156 111.846 92.1492C111.697 92.2092 111.617 92.346 111.644 92.4804L113.511 106.974C113.523 107.137 113.292 107.183 113.244 107.027L109.043 94.0764C108.994 93.954 108.884 93.8772 108.756 93.8772C108.694 93.8772 108.633 93.8964 108.585 93.9324C108.499 93.99 108.453 94.0788 108.465 94.2564L111.891 107.228C111.925 107.382 111.713 107.459 111.634 107.312L111.627 107.298L106.225 96.5148C106.182 96.4284 106.097 96.3756 106.003 96.3756C105.931 96.3756 105.862 96.4068 105.818 96.4572C105.773 96.5004 105.748 96.5628 105.748 96.6276C105.748 96.642 105.76 96.714 105.765 96.726L110.301 107.104C110.371 107.252 110.161 107.37 110.063 107.233L110.048 107.212L104.283 99.2003C104.237 99.1452 104.172 99.1139 104.105 99.1139C104.086 99.1139 103.99 99.1524 103.973 99.162C103.92 99.198 103.891 99.2556 103.891 99.3228C103.891 99.342 103.915 99.4284 103.927 99.4452L108.294 106.081C108.383 106.22 108.196 106.369 108.075 106.249C108.075 106.249 94.4081 92.4948 94.4008 92.4948C94.4008 92.4948 94.4008 92.4948 94.4008 92.4972C93.9196 92.0388 93.2916 91.7868 92.6323 91.7868C91.4749 91.7868 90.4908 92.5812 90.2381 93.7188L85.9647 114.078C85.9455 114.172 85.9623 114.268 86.0153 114.347C86.0682 114.428 86.1476 114.484 86.2414 114.503L87.1173 114.69C87.2857 114.69 87.4205 114.575 87.4445 114.416L89.704 102.544C89.7449 102.385 89.9927 102.414 89.9831 102.584L89.2877 114.666C89.2877 114.839 89.4152 114.978 89.5812 114.992C89.6438 115.002 89.716 115.002 89.7785 115.002C89.7882 115.002 89.8291 115.002 89.8339 115.002C89.9951 115.002 90.1298 114.877 90.1443 114.714L91.3474 100.763C91.357 100.583 91.6048 100.592 91.6169 100.763L92.3724 114.536C92.3845 114.683 92.5024 114.793 92.6948 114.793C92.6997 114.793 92.8801 114.764 92.8801 114.764C93.0149 114.75 93.1183 114.63 93.1183 114.486L92.8898 99.75C92.8898 99.5796 93.128 99.5604 93.1592 99.7284L95.6063 113.627C95.628 113.783 95.7579 113.896 95.9143 113.896C95.9528 113.896 95.9913 113.888 96.0707 113.855C96.2175 113.797 96.2993 113.66 96.2729 113.524L94.4032 99.0372C94.384 98.8692 94.6222 98.8188 94.6727 98.9772V98.982L98.874 111.925C98.9221 112.048 99.0328 112.127 99.1603 112.127C99.2228 112.127 99.283 112.108 99.3311 112.072C99.4178 112.014 99.4635 111.925 99.4514 111.745L96.025 98.778C95.9841 98.6172 96.2031 98.538 96.2825 98.6868L101.689 109.484C101.733 109.568 101.817 109.621 101.911 109.621C101.983 109.621 102.053 109.59 102.096 109.54C102.139 109.496 102.166 109.434 102.166 109.369C102.166 109.355 102.154 109.283 102.149 109.271L97.6131 98.8932C97.5433 98.7444 97.7527 98.6268 97.8513 98.7636L97.8633 98.7804L103.631 106.796C103.677 106.852 103.742 106.883 103.809 106.883C103.828 106.883 103.925 106.844 103.939 106.835C103.994 106.799 104.023 106.741 104.023 106.672C104.023 106.652 103.999 106.566 103.987 106.549L99.6199 99.9132C99.5308 99.774 99.7185 99.6276 99.8364 99.7428C112.919 112.784 113.501 113.497 113.513 113.497C113.513 113.497 113.513 113.497 113.513 113.495C113.994 113.953 114.622 114.205 115.282 114.205C116.437 114.205 117.421 113.411 117.676 112.273L121.949 91.9188C121.969 91.8252 121.952 91.7292 121.899 91.65L121.894 91.6572Z" fill="white"/>
</g>
</g>
<defs>
<clipPath id="clip0_368_13429">
<rect width="205.082" height="205.107" fill="white" transform="translate(0.917969)"/>
</clipPath>
<clipPath id="clip1_368_13429">
<rect width="68.3616" height="68.3616" fill="white" transform="translate(69.2793 68.377)"/>
</clipPath>
</defs>
</svg>
