<svg width="32" height="32" viewBox="0 0 32 32" fill="none" xmlns="http://www.w3.org/2000/svg">
<g id="qr-code-02">
<path id="Icon" d="M8.66667 8.66667H8.68M23.3333 8.66667H23.3467M8.66667 23.3333H8.68M17.3333 17.3333H17.3467M23.3333 23.3333H23.3467M22.6667 28H28V22.6667M18.6667 22V28M28 18.6667H22M20.8 13.3333H25.8667C26.6134 13.3333 26.9868 13.3333 27.272 13.188C27.5229 13.0602 27.7268 12.8562 27.8547 12.6053C28 12.3201 28 11.9467 28 11.2V6.13333C28 5.3866 28 5.01323 27.8547 4.72801C27.7268 4.47713 27.5229 4.27316 27.272 4.14532C26.9868 4 26.6134 4 25.8667 4H20.8C20.0533 4 19.6799 4 19.3947 4.14532C19.1438 4.27316 18.9398 4.47713 18.812 4.72801C18.6667 5.01323 18.6667 5.3866 18.6667 6.13333V11.2C18.6667 11.9467 18.6667 12.3201 18.812 12.6053C18.9398 12.8562 19.1438 13.0602 19.3947 13.188C19.6799 13.3333 20.0533 13.3333 20.8 13.3333ZM6.13333 13.3333H11.2C11.9467 13.3333 12.3201 13.3333 12.6053 13.188C12.8562 13.0602 13.0602 12.8562 13.188 12.6053C13.3333 12.3201 13.3333 11.9467 13.3333 11.2V6.13333C13.3333 5.3866 13.3333 5.01323 13.188 4.72801C13.0602 4.47713 12.8562 4.27316 12.6053 4.14532C12.3201 4 11.9467 4 11.2 4H6.13333C5.3866 4 5.01323 4 4.72801 4.14532C4.47713 4.27316 4.27316 4.47713 4.14532 4.72801C4 5.01323 4 5.3866 4 6.13333V11.2C4 11.9467 4 12.3201 4.14532 12.6053C4.27316 12.8562 4.47713 13.0602 4.72801 13.188C5.01323 13.3333 5.3866 13.3333 6.13333 13.3333ZM6.13333 28H11.2C11.9467 28 12.3201 28 12.6053 27.8547C12.8562 27.7268 13.0602 27.5229 13.188 27.272C13.3333 26.9868 13.3333 26.6134 13.3333 25.8667V20.8C13.3333 20.0533 13.3333 19.6799 13.188 19.3947C13.0602 19.1438 12.8562 18.9398 12.6053 18.812C12.3201 18.6667 11.9467 18.6667 11.2 18.6667H6.13333C5.3866 18.6667 5.01323 18.6667 4.72801 18.812C4.47713 18.9398 4.27316 19.1438 4.14532 19.3947C4 19.6799 4 20.0533 4 20.8V25.8667C4 26.6134 4 26.9868 4.14532 27.272C4.27316 27.5229 4.47713 27.7268 4.72801 27.8547C5.01323 28 5.3866 28 6.13333 28Z" stroke="currentColor" stroke-width="1.5" stroke-linecap="round" stroke-linejoin="round"/>
</g>
</svg>
